<?xml version="1.0" encoding="UTF-8"?>
<!-- Created with Inkscape (http://www.inkscape.org/) -->
<svg width="142mm" height="137mm" version="1.1" viewBox="0 0 142 137" xml:space="preserve" xmlns="http://www.w3.org/2000/svg"><path d="m68.36 17.865c-5.2633 0.09212-10.024 4.49-10.617 9.7185-0.56756 4.1897 1.5619 8.5681 5.1795 10.734 3.5515 2.2812 8.4167 2.15 11.876-0.24961 3.0971-2.012 4.9929-5.6796 4.8768-9.3721-0.03123-3.3912-1.6969-6.7427-4.4917-8.688-1.957-1.4382-4.3939-2.2218-6.8235-2.1422zm0.41903 5.8098c2.5712-0.03346 5.084 2.1723 5.0378 4.8214 0.05305 1.165-0.0077 2.4178-0.78865 3.3552-0.97206 1.3853-2.5924 2.2682-4.2938 2.2347-2.5966 0.26244-5.0336-1.9575-5.1889-4.5346-0.2656-1.5611 0.25449-3.2061 1.4148-4.2907 0.99894-1.0058 2.3994-1.6005 3.8188-1.5859zm-2.3267 18.69c-2.4856 0.0925-5.1841-0.17342-7.473 1.0667-3.2019 1.5592-5.6774 4.6292-6.43 8.1232-1.0282 7.0721-1.7591 14.187-2.5728 21.286-0.15731 2.0715-0.50712 4.1513-0.35152 6.231 0.28834 2.4546 2.0717 4.6042 4.2921 5.6037 0.4491 0.20713 0.92185 0.36446 1.4035 0.47384 0.42212 2.7636 0.49374 5.5676 0.74422 8.3501 0.52904 6.8173 0.91885 13.648 1.5866 20.453 0.15534 1.142 0.19732 2.5898 1.2809 3.2717 1.2268 0.61687 2.6615 0.32452 3.9817 0.45502 4.8017 0.10341 9.6105 0.12411 14.409-0.0879 0.95694-0.0221 1.875-0.6612 2.0374-1.6431 0.49857-1.9386 0.51082-3.9646 0.72115-5.9476 0.68699-8.288 1.1564-16.596 1.9947-24.87 1.7133-0.32831 3.2688-1.4 4.3026-2.7934 1.1977-1.6081 1.6704-3.7231 1.3443-5.6729-0.67642-7.7109-1.6025-15.4-2.6096-23.074-0.25052-1.6637-0.4402-3.3815-1.3014-4.8639-1.5973-3.0722-4.5745-5.5356-8.0267-6.111-3.1009-0.29131-6.2217-0.23215-9.3328-0.24962zm-3.5276 5.8467c3.7559 0.03776 7.5153-0.05924 11.269 0.06204 2.0276-0.06923 3.6812 1.525 4.5404 3.2342 0.65232 1.3879 0.60244 2.9759 0.87516 4.4619 0.85136 6.951 1.719 13.903 2.3502 20.878-0.0039 0.83992 0.22791 2.0072-0.6908 2.4578-0.99666 0.21241-2.0811 0.03067-3.0595 0.41988-0.92192 0.21544-1.4512 1.0827-1.5988 1.9669-0.54793 3.4636-0.69147 6.9789-0.98908 10.471-0.47902 6.5815-0.96792 13.162-1.4482 19.743-3.6445 0.11361-7.2968 0.11407-10.938 4e-3 -0.81022-10.002-1.4406-20.019-2.2863-30.016-0.26762-1.3981-1.598-2.4676-3.0202-2.4197-0.80515-0.11276-1.7847 0.07942-2.3676-0.64951-0.33659-1.0177-0.04574-2.1218-0.02422-3.17 0.57833-6.1495 1.3488-12.33 2.0719-18.488 0.23024-1.651 0.35704-3.3205 0.71404-4.9579 0.55096-1.7971 2.0511-3.1371 3.7535-3.8289 0.2591-0.13462 0.55498-0.22773 0.8486-0.17041z" stroke-width=".89859"/><path d="m68.36 0c-37.711-5.1946e-6 -68.36 30.713-68.36 68.501 6.9786e-6 37.788 30.649 68.499 68.36 68.499 12.705 0 24.609-3.4856 34.808-9.5532 0 0 2.3355-2.0404 0.18729-5.0204s-5.7472-0.161-5.7472-0.161c-8.6827 4.7452-18.647 7.4414-29.248 7.4414-33.778 1e-5 -61.084-27.358-61.084-61.205 1.34e-5 -33.847 27.305-61.208 61.084-61.208 33.778 5e-7 61.085 27.361 61.085 61.208-1e-5 5.3717-0.68862 10.58-1.9809 15.541 0 0-1.3964 3.359 1.7604 5.0331 3.1568 1.6742 4.6021-0.81967 4.6021-0.81967 1.8821-6.2568 2.8948-12.889 2.8948-19.754-2e-5 -37.788-30.649-68.501-68.36-68.501z" color="#000000" stroke-linecap="round" stroke-width=".99795"/><g transform="matrix(.99694 0 0 .99896 197.42 36.214)"><path d="m-101.19 68.002a3.8905 3.8905 0 0 0-3.8906 3.8906 3.8905 3.8905 0 0 0 3.8906 3.8906h41.705a3.8905 3.8905 0 0 0 3.8906-3.8906 3.8905 3.8905 0 0 0-3.8906-3.8906zm-9.1e-4 3.8913h41.706m-20.854-24.743a3.8905 3.8905 0 0 0-3.8906 3.8887v41.707a3.8905 3.8905 0 0 0 3.8906 3.8906 3.8905 3.8905 0 0 0 3.8906-3.8906v-41.707a3.8905 3.8905 0 0 0-3.8906-3.8887zm7.74e-4 3.8896v41.706" color="#000000" stroke-linecap="round"/></g></svg>
