<?xml version="1.0" encoding="UTF-8"?>
<!-- Created with Inkscape (http://www.inkscape.org/) -->
<svg width="125.56mm" height="125.56mm" version="1.1" viewBox="0 0 125.56 125.56" xml:space="preserve" xmlns="http://www.w3.org/2000/svg"><path d="m10.254 124.69c-2.1343-0.622-3.3279-1.4126-5.6868-3.7667-2.6206-2.6153-3.0968-3.3922-3.8958-6.3559-0.79332-2.9425-0.83605-3.8094-0.33247-6.746 1.2075-7.0414 4.6162-15.167 9.4829-22.604 3.6061-5.511 11.844-13.893 16.981-17.277 3.8188-2.5161 11.037-6.209 14.059-7.1929l1.8762-0.61083-3.0404-3.0804c-3.9924-4.0449-6.0215-7.0634-7.7674-11.555-7.1836-18.48 2.492-38.368 21.544-44.284 5.2335-1.625 13.43-1.625 18.663 0 18.937 5.8799 28.69 25.734 21.647 44.066-1.6999 4.4244-4.1195 8.0518-7.8305 11.739l-2.9449 2.9263 3.742 1.5514c4.4614 1.8496 6.0139 3.4208 6.0139 6.0861 0 1.5114-0.30489 2.1501-1.5111 3.165-1.9268 1.6213-4.013 1.6398-7.5694 0.067-8.6462-3.8238-19.844-5.1045-29.756-3.4034-13.742 2.3586-25.956 9.7585-34.22 20.733-4.8201 6.4009-9.1069 15.905-9.7952 21.716-0.26708 2.255-0.18065 2.501 1.4523 4.134l1.7362 1.7362h31.506c33.746 0 33.575-0.0119 34.881 2.4285 0.64934 1.2133 0.64934 3.7525 0 4.9658-1.3083 2.4447-1.1131 2.4313-34.955 2.3889-27.441-0.0345-31.934-0.14279-34.281-0.82686zm57.028-68.38c6.687-1.232 13.727-6.6886 16.677-12.925 6.7308-14.232-2.19-31.041-17.696-33.342-12.86-1.9087-24.855 7.0911-26.668 20.008-1.3746 9.7958 3.7059 19.534 12.511 23.981 5.1787 2.6155 9.6786 3.291 15.176 2.2781zm32.495 68.278c-0.87067-0.53086-1.7011-1.4693-1.8453-2.0855-0.14427-0.61616-0.31595-4.325-0.38154-8.2418l-0.11924-7.1215-8.0258-0.24557c-7.7146-0.23604-8.0624-0.29082-8.9695-1.4127-1.3246-1.6382-1.633-3.2778-0.93407-4.9653 1.0541-2.5448 1.5483-2.6904 10.022-2.9536l7.9076-0.24556 0.24557-7.9076c0.26314-8.4734 0.4088-8.9676 2.9536-10.022 1.6875-0.69899 3.3271-0.39056 4.9653 0.93406 1.1219 0.90713 1.1767 1.2549 1.4127 8.9695l0.24557 8.0258 7.9076 0.24556c8.4734 0.26315 8.9677 0.40881 10.022 2.9536 0.69899 1.6875 0.39055 3.3271-0.93406 4.9653-0.90713 1.1219-1.2549 1.1767-8.9695 1.4127l-8.0258 0.24557-0.11924 7.1215c-0.0656 3.9168-0.23728 7.6257-0.38155 8.2418-0.29247 1.2493-2.897 3.0507-4.4106 3.0507-0.54025 0-1.6946-0.43434-2.5653-0.96521z" stroke-width=".49114"/></svg>
