<?xml version="1.0" encoding="UTF-8"?>
<!-- Created with Inkscape (http://www.inkscape.org/) -->
<svg width="131.1mm" height="131.1mm" version="1.1" viewBox="0 0 131.1 131.1" xml:space="preserve" xmlns="http://www.w3.org/2000/svg"><g transform="translate(-56.204 -70.058)"><path d="m107.91 199.71c-25.056-5.3237-44.919-25.489-50.169-50.934-2.0481-9.9272-2.0481-16.248 0-26.176 5.3216-25.794 25.254-45.772 50.894-51.011 9.9734-2.0378 16.265-2.0378 26.239 0 25.64 5.2388 45.573 25.217 50.894 51.011 2.0455 9.9144 2.0478 16.225 0.01 26.223-7.2615 35.622-42.213 58.462-77.869 50.887zm27.637-9.1176c24.873-6.4862 42.615-29.345 42.615-54.904 0-31.066-25.377-56.473-56.407-56.473-31.029 0-56.407 25.407-56.407 56.473 0 25.33 17.614 48.239 42.176 54.853 7.3198 1.9711 20.566 1.995 28.023 0.0505zm-34.332-39.054c-7.8812-7.8184-14.329-14.951-14.329-15.85 0-0.89917 6.4482-8.0317 14.329-15.85 13.918-13.807 14.396-14.171 16.666-12.665 4.2106 2.7944 3.4176 4.5951-6.4676 14.687l-9.4869 9.6853 26.469 0.27438c23.915 0.2479 26.578 0.44773 27.601 2.0712 0.82493 1.31 0.82493 2.2837 0 3.5937-1.0223 1.6235-3.6853 1.8234-27.601 2.0712l-26.469 0.27441 9.4869 9.6853c9.8852 10.092 10.678 11.893 6.4676 14.687-2.2692 1.506-2.7476 1.1425-16.666-12.665z" stroke-width="1.0262"/></g></svg>
