<?xml version="1.0" encoding="UTF-8"?>
<!-- Created with Inkscape (http://www.inkscape.org/) -->
<svg width="65mm" height="65mm" version="1.1" viewBox="0 0 65 65" xml:space="preserve" xmlns="http://www.w3.org/2000/svg"><g transform="translate(-100 -143.5)"><path d="m105.05 143.5a5.0514 5.0514 0 0 0-3.5714 1.48 5.0514 5.0514 0 0 0 0 7.1432l23.878 23.878-23.878 23.877a5.0514 5.0514 0 0 0 0 7.1432 5.0514 5.0514 0 0 0 7.1427 0l23.878-23.878 23.878 23.878a5.0514 5.0514 0 0 0 7.1432 0 5.0514 5.0514 0 0 0 0-7.1432l-23.878-23.877 23.878-23.878a5.0514 5.0514 0 0 0 0-7.1432 5.0514 5.0514 0 0 0-3.5719-1.48 5.0514 5.0514 0 0 0-3.5714 1.48l-23.878 23.878-23.878-23.878a5.0514 5.0514 0 0 0-3.5714-1.48z" color="#000000" stroke-linecap="round" stroke-width="1.0103" style="-inkscape-stroke:none"/></g></svg>
