<?xml version="1.0" encoding="UTF-8"?>
<!-- Created with Inkscape (http://www.inkscape.org/) -->
<svg width="158.38mm" height="134.44mm" version="1.1" viewBox="0 0 158.38 134.44" xml:space="preserve" xmlns="http://www.w3.org/2000/svg"><path d="m115.46 0.0029758c-0.47211-0.0087378-0.94417 0.0021735-1.4139 0.027389l1e-3 -5.1677e-4c-1.6914 0.05245-3.4313 0.38381-4.8261 1.5152-2.4264 1.8939-4.7152 4.5875-5.0819 7.9809-0.48378 5.589-0.40313 11.214-0.32556 16.821 0.0905 2.5071 0.10585 5.0541 0.58963 7.5107 0.83578 2.704 2.5576 5.0696 4.7124 6.6311 0.90241 0.62808 2.229 0.95268 2.4221 2.3136 0.25031 1.6071 0.12585 3.2606 0.0935 4.8839-0.0408 0.7669-0.36955 2.0745-1.2986 1.7286-4.9322-2.208-9.8932-4.491-15.054-6.0322-2.802-0.85483-5.6355-1.5842-8.4574-2.3585 0.0671-4.7073-0.19806-9.4384 0.23254-14.127 0.14921-0.63823 0.76062-1.111 1.3457-0.8568 1.7107-0.03662 3.1471-1.763 3.3977-3.5584 0.19301-0.99351-0.3018-1.9354-1.0371-2.4712-3.2409-3.3068-6.841-6.1437-10.327-9.1209-3.9158-3.2226-7.7948-6.5334-11.985-9.3121-0.76816-0.58738-1.7536-0.47438-2.5073 0.075964-2.2867 1.3444-4.3109 3.1554-6.4389 4.7749-5.2808 4.2412-10.53 8.5582-15.494 13.249-0.64986 0.68604-1.551 1.4126-1.3606 2.5358 0.11099 2.1782 2.0371 4.1493 4.0354 3.7941 0.99941 0.4279 0.80242 1.8113 0.8847 2.7549 0.1922 4.0874 0.01847 8.1856 0.09767 12.272-6.7856 1.7062-13.524 3.7794-19.938 6.797-1.3508 0.5759-2.6243 1.2612-4.0018 1.6366-1.0017-0.35357-0.86733-1.7922-0.90227-2.7239-0.0238-1.6013-0.24535-3.3468 0.44338-4.8209 0.88781-1.0707 2.3084-1.2067 3.189-2.3347 1.8421-1.7637 3.4171-4.1135 3.8111-6.8208 0.62163-6.1249 0.44669-12.306 0.3607-18.456-0.099001-2.2237-0.13034-4.5018-0.68885-6.6508-1.1172-2.9853-3.3323-5.4247-5.9273-6.8668-1.7114-0.9109-3.6681-0.76318-5.5154-0.77205-2.7757 0.01703-5.605 1.2499-7.3541 3.6959-1.1452 1.4957-2.1576 3.1727-2.8577 4.9594-0.11541 3.1335-0.013243 6.2739-0.050643 9.4103v15.296c1.4113 2.8454 3.0396 5.824 5.7526 7.3432 0.62738 0.42037 1.2547 0.84106 1.8821 1.2614-0.0592 3.9652 0.21748 7.9554-0.18914 11.902-0.60931 2.0263-2.7409 2.7924-4.5026 2.8396-2.7066 0.20172-5.4264-0.24005-8.1272 0.03152-0.95658 0.10199-1.6833 0.82829-2.2743 1.5978-0.6421 0.49365-0.85849 1.3469-0.74466 2.1751 0.0288 22.099-0.083924 44.198 0.11886 66.296 0.063 1.9609 0.047905 3.9733 0.46715 5.8792 0.47059 0.80353 1.0955 1.913 2.0996 1.7032h127.2s4.2511 0.18837 4.1935-3.4752-4.3276-3.5043-4.3276-3.5043c-8.5287-0.0585-12.492-0.0365-20.898-0.0365-2.2364-5.9472-4.9251-11.688-8.123-17.075-3.107-5.3799-6.6875-10.423-10.73-14.985-4.341-5.0072-9.0935-9.5593-14.083-13.756-0.45579-0.53375-1.344-0.94962-1.2769-1.7901 0.50415-0.88501 1.5401-1.0796 2.3094-1.6077 12.585-6.783 26.188-11.248 40.05-13.037 3.5012-0.44742 7.017-0.73759 10.527-1.0888v0.6935s2e-3 2.6458 3.4383 2.6458c3.4366 0 3.4383-2.6458 3.4383-2.6458-2.9e-4 -2.7387-7.3e-4 -2.8315-5.1e-4 -5.5702-0.99889-1.0911-2.0151-2.6471-3.6003-2.4851-3.1908-0.22689-6.4685 0.56656-9.5917-0.42168-1.3333-0.4845-2.5991-1.7325-2.5673-3.3962-0.2121-2.7385-0.0308-5.4929-0.0863-8.2383 3e-3 -0.88282 5e-3 -1.7655 8e-3 -2.6484 2.3626-1.506 4.8554-3.1478 6.1846-5.8963 0.51355-0.96384 1.1333-1.9211 1.4521-2.9735v-24.553c-1.5698-3.1168-3.4318-6.4882-6.6055-7.8083-1.3388-0.52723-2.754-0.73085-4.1703-0.75706zm-0.29353 7.2595c0.17382 0.03525 0.34811 0.070697 0.52194 0.10594v-0.00103c1.3645 0.37604 2.8738 1.2099 3.375 2.7538 0.6235 2.6462 0.39796 5.4146 0.5116 8.1204 0.0481 4.4841 0.0684 9.0124-0.25993 13.448-0.56444 1.7997-2.3371 2.564-3.8142 3.1962-1.2293 0.22374-2.4174-0.5355-3.3889-1.2821-0.93207-0.82418-1.2023-2.1681-1.1989-3.422-0.43581-5.5993-0.27688-11.322-0.1695-16.974 0.1125-1.179-0.0499-2.4791 0.44338-3.5584 0.86317-1.4329 2.4399-2.3251 3.9796-2.3869zm-95.723 0.00207c0.06469 6.339e-4 0.12965 0.0048 0.1943 0.013953v5.168e-4c1.5464 0.17854 3.0899 1.1853 3.8044 2.7301 0.41165 1.8032 0.20687 3.6893 0.32608 5.5294 0.0763 5.151 0.2104 10.345-0.20464 15.443-0.336 2.6237-3.002 4.3039-5.2503 3.6261-1.3531-0.46103-2.7102-1.5633-3.0742-3.143-0.51631-4.1437-0.31135-8.3411-0.36638-12.511 0.0368-2.9142 0.02656-5.8566 0.46405-8.7359 0.51693-1.6353 2.1013-2.4905 3.5285-2.883 0.19069-0.040357 0.38418-0.072182 0.57826-0.07028zm47.719 2.9094c0.07676-9.4e-5 0.15337 0.01962 0.22893 0.06201 1.8359 0.79283 3.3336 2.2675 4.9661 3.451 2.5343 2.0088 5.0308 4.0731 7.5401 6.12 0.0117 6.6298 0.02334 13.26 0.03514 19.889-3.1914 0.06884-6.3648-0.3928-9.5255-0.82217-0.0845-2.8617 0.22686-5.7762-0.293-8.5979-1.0245-2.5756-4.9685-2.4603-5.8436 0.19379-0.34943 2.786-0.16909 5.6027-0.20722 8.4041-3.1626 0.42894-6.3379 0.89258-9.5312 0.82217 0.013-6.6298 0.02617-13.26 0.03927-19.889 4.0972-3.2222 7.9748-6.8277 12.361-9.5777 0.07641-0.03552 0.1532-0.0552 0.22996-0.05529zm-0.19482 36.858h0.0016c6.2168 0.06471 12.457-0.07464 18.519 1.4816 8.4724 1.9222 16.733 4.9964 24.491 9.2294 0.56453 0.28485 1.4723 0.61675 0.32763 0.66663-7.3854 1.5444-14.738 3.3931-21.831 6.1717-6.9447 2.5882-13.465 6.3242-20.004 9.9358-0.55041 0.1836-1.0863 0.90399-1.6547 0.42581-3.6281-1.688-7.0031-3.9484-10.606-5.75-8.9591-4.676-18.508-7.8662-28.22-9.9565-1.5119-0.34237-3.027-0.66525-4.5408-0.99736 6.5783-3.3789 13.287-6.5175 20.343-8.3845 4.9159-1.4162 9.8796-2.516 14.964-2.6546 2.7352-0.12903 5.4737-0.13878 8.2109-0.16795zm-60.059 17.025c1.0742 0.1 2.1488 0.19972 3.2231 0.29972v1e-3c8.2399 0.79744 16.442 2.0364 24.46 4.4033 6.4692 1.8174 12.797 4.2456 18.836 7.3453 6.099 3.0626 11.82 6.7802 17.333 11.032 5.7551 4.4087 11.172 9.4671 15.875 15.249 5.1806 6.3029 9.6871 13.435 13.076 21.129 0.47586 1.2106 0.94943 2.4969 1.0408 3.8049-12.451 0.10619-25.933 0.14702-36.81-0.0682-1.365-0.0835-2.8667 0.0556-4.0835-0.73277-0.76344-0.97814-0.88231-2.3497-1.4707-3.4473-3.2568-8.2078-8.0315-15.671-13.863-21.892-8.0388-8.3615-18.188-14.253-29.018-16.667-2.83-0.67665-5.7283-1.0538-8.6263-0.97565 0.0864-2.2496-0.00643-4.5155 0.026872-6.7727zm0.0031 26.863c3.8777 0.34146 7.6791 0.94687 11.444 2.2195 5.6019 1.9261 10.914 4.7138 15.685 8.4848 7.299 5.638 13.361 13.336 17.088 22.298 0.23143 0.85026 0.89373 1.6852 0.67748 2.5942-0.75353 0.76716-1.916 0.41327-2.85 0.57774-7.7192 0.40334-15.45 0.24589-23.176 0.29766-6.2904 2e-3 -12.581 3e-3 -18.871 6e-3 1e-3 -12.158-0.00293-24.322 0.00207-36.477z"/><g transform="matrix(.20003 0 0 .20002 -113.52 25.317)"><g transform="translate(-2.0597e-4,26.142)"><path d="m1303.1 178.69c-7.0755 0.14505-14.38 1.9389-19.998 6.4171-6.9584 5.5588-13.294 11.837-19.729 17.979-21.293 20.598-42.13 41.66-63.088 62.595-25.211 25.25-50.412 50.509-75.608 75.774-6.8538 25.676-14.056 51.261-20.473 77.051-0.5666 2.569 0.4939 5.1529 1.9729 7.2156 1.7462 2.5252 3.9912 4.6974 6.4575 6.512 2.3357 1.5849 5.383 2.2035 8.0875 1.2565 12.106-2.9967 24.146-6.2584 36.186-9.5024 13.179-3.5777 26.348-7.1936 39.529-10.763 11.248-11.346 22.574-22.616 33.854-33.93 28.466-28.506 56.956-56.984 85.297-85.612 11.264-11.431 22.527-22.875 33.268-34.804 3.0851-3.4821 6.1426-7.2087 7.5063-11.741 1.6425-4.9626 2.7987-10.138 2.94-15.378 0.1294-5.2218-0.9452-10.429-2.9004-15.261-2.337-6.1151-6.1199-11.589-10.61-16.32-5.6796-6.269-11.977-12.051-19.096-16.652-5.2118-3.1672-11.302-4.8532-17.402-4.8001-1.8044-0.0578-3.6365-0.0447-5.3931-0.0648-0.2666 9e-3 -0.5332 0.0184-0.7998 0.0276zm3.6719 29.465c2.5105 0.13401 5.2181 0.58391 7.0779 2.4316 4.7398 4.0304 9.1092 8.4937 13.138 13.231 1.0655 1.2946 2.1513 2.714 2.2607 4.4542 0.3268 2.4897 0.089 5.0397-0.4292 7.4848-0.9593 3.1299-3.2282 5.5985-5.2172 8.1157-0.5357 0.64329-1.0852 1.2748-1.631 1.9095-10.28-9.8485-20.252-20.011-30.318-30.076 3.3033-2.7214 6.8063-5.7251 11.01-7.1348 1.3297-0.39916 2.7261-0.55132 4.1094-0.41602zm-5.9395 58.848c-36.621 36.65-73.109 73.435-110 109.82-0.452 0.27835-0.9022 1.2259-1.3555 1.0474-9.0266-8.7217-17.858-17.664-26.749-26.573-1.0522-1.0556-2.1043-2.1112-3.1564-3.1667 37.022-37.105 74.044-74.211 111.07-111.32 10.064 10.064 20.129 20.129 30.193 30.193zm-153.13 111.37c4.5037 4.4822 8.8603 8.9313 13.264 13.502-0.2828 0.25796-1.1616 0.3548-1.6741 0.55065-6.3709 1.7933-12.755 3.5387-19.141 5.2769 1.9248-6.9883 3.9053-13.961 5.9414-20.918 0.5365 0.52929 1.0729 1.0586 1.6094 1.5879z"/></g></g></svg>
