<?xml version="1.0" encoding="UTF-8"?>
<!-- Created with Inkscape (http://www.inkscape.org/) -->
<svg width="597.2" height="544.9" version="1.1" viewBox="0 0 597.2 544.9" xml:space="preserve" xmlns="http://www.w3.org/2000/svg"><g transform="translate(-.38971 -26.693)"><g transform="translate(-2.0597e-4,26.142)"><path d="m540.03 229.09c-7.1503 0.12888-14.507 1.8997-20.283 6.2769-5.134 3.9453-9.8008 8.4511-14.524 12.868-13.351 12.717-26.413 25.736-39.481 38.744-27.074 27.023-54.063 54.13-81.087 81.206-8.0882 8.1087-16.175 16.219-24.264 24.327-6.7757 25.334-13.854 50.587-20.254 76.02-0.53497 2.0281-0.8176 4.2401 0.0198 6.2307 1.2273 3.443 3.8255 6.1606 6.4355 8.6213 2.5142 2.2796 5.852 4.1111 9.3511 3.595 2.3108-0.33561 4.5342-1.088 6.8088-1.5982 22.55-5.7735 44.963-12.062 67.434-18.133 1.2914-0.38785 2.6547-0.65103 3.9026-1.1147 37.514-37.572 75.082-75.085 112.5-112.76 12.921-13.074 25.869-26.131 38.299-39.676 2.6776-2.9895 5.3758-6.0075 7.5128-9.4155 2.3243-4.1349 3.407-8.8129 4.4044-13.409 1.2686-6.71 1.0898-13.785-1.2066-20.26-2.0234-6.4013-5.4149-12.358-9.8997-17.356-5.663-6.6316-12.079-12.643-19.17-17.725-5.1599-3.5669-11.222-5.9629-17.524-6.2852-2.9848-0.21646-5.9796-0.18209-8.9701-0.1577zm3.0918 32.121c2.2205 0.21096 4.7142 0.24858 6.4341 1.8846 3.6446 2.9179 6.8721 6.3123 10.105 9.669 1.7183 1.8678 3.4637 3.7552 4.8282 5.8976 0.72708 2.1423 0.46049 4.4578 0.30859 6.6699-0.23492 2.0499-1.0372 4.0224-2.3684 5.6048-0.78351 1.1191-1.4881 2.0633-2.366 3.1416-0.4066 0.50369-0.8269 0.99602-1.252 1.4841-9.5925-9.149-18.834-18.655-28.221-28.012 2.3826-1.9995 4.9052-3.8851 7.6871-5.2912 1.5138-0.6892 3.1705-1.1266 4.8442-1.0486zm-21.408 43.406c4.7116 4.7136 9.4232 9.4271 14.135 14.141-34.715 34.748-69.316 69.607-104.24 104.15-1.6795 1.6607-3.3719 3.3082-5.0596 4.9606-9.5284-9.1774-18.773-18.643-28.135-27.988 36.388-36.466 72.776-72.932 109.16-109.4 4.7103 4.7122 9.4206 9.4245 14.131 14.137zm-135.03 129.46c2.9312 2.9513 5.8507 5.9146 8.7246 8.9219-5.45 1.5522-10.915 3.0505-16.387 4.5254 1.4946-5.4903 3.0641-10.96 4.666-16.42 0.9987 0.99089 1.9974 1.9818 2.9961 2.9727z" stroke-width="1.2966"/><path d="m44.892 541.84c-9.2706-2.7018-14.455-6.1358-24.701-16.361-11.383-11.36-13.451-14.734-16.922-27.608-3.4459-12.781-3.6315-16.547-1.4441-29.302 2.9251-17.058 12.281-45.024 21.582-64.513 12.491-26.173 31.922-52.897 55.351-76.128 12.467-12.362 29.575-27.028 38.017-32.59 16.588-10.929 47.94-26.97 61.067-31.243l8.1497-2.6532-13.207-13.38c-17.342-17.57-26.155-30.681-33.739-50.19-12.274-31.575-13.814-64.304-4.467-94.933 14.186-46.485 50.632-82.698 98.047-97.42 12.838-3.9863 20.848-4.968 40.533-4.968s27.695 0.98175 40.533 4.968c58.389 18.13 99.213 68.6 103.85 128.38 2.2848 29.485-6.9738 65.092-23.32 89.688-4.2456 6.388-13.475 17.334-20.511 24.325l-12.792 12.711 16.254 6.7386c19.379 8.034 26.122 14.859 26.122 26.436 0 6.5652-1.3244 9.3391-6.5637 13.748-8.3694 7.0424-17.431 7.1226-32.879 0.29081-25.329-11.202-60.526-18.235-91.257-18.235-33.085 0-75.471 10.121-105.03 25.081-42.747 21.631-80.829 59.394-102.71 101.85-10.532 20.435-19.736 46.588-21.431 60.902-1.1601 9.7951-0.78472 10.864 6.3081 17.956l7.5416 7.5416h136.85c117.89 0 137.72 0.44644 143.08 3.2221 7.5165 3.887 10.624 9.1844 10.624 18.111s-3.1074 14.224-10.624 18.111c-5.3785 2.7813-24.995 3.1986-143.4 3.05-119.2-0.14952-138.71-0.6202-148.91-3.5916zm247.71-297.02c6.3202-1.1644 18.486-5.6336 27.035-9.9314 10.79-5.4245 19.201-11.764 27.503-20.731 21.734-23.475 31.145-52.718 26.84-83.398-3.2099-22.875-12.41-41.141-29.156-57.887-23.589-23.589-54.21-33.842-86.68-29.023-21.91 3.2519-40.299 12.673-56.648 29.023-16.746 16.746-25.946 35.012-29.156 57.887-4.3051 30.68 5.1059 59.922 26.84 83.398 8.2652 8.9274 16.76 15.342 27.503 20.768 22.494 11.361 42.04 14.295 65.919 9.8953z" stroke-width="2.1333"/></g></g></svg>
