<?xml version="1.0" encoding="UTF-8"?>
<!-- Created with Inkscape (http://www.inkscape.org/) -->
<svg width="601.35" height="517.8" version="1.1" viewBox="0 0 601.35 517.8" xml:space="preserve" xmlns="http://www.w3.org/2000/svg"><g transform="translate(-755.33 -21.717)"><g transform="translate(-2.0597e-4,26.142)"><path d="m1303.2 181.33c-6.6207 0.12926-13.496 1.7726-18.703 6.0508-5.456 4.3353-10.514 9.2535-15.537 14-20.708 19.883-40.901 40.292-61.214 60.575-26.916 26.936-53.796 53.908-80.692 80.865-6.7708 25.336-13.866 50.589-20.215 76.036-0.3602 1.4691 0.05 2.9834 0.8264 4.2457 1.4802 2.6158 3.689 4.7436 6.0027 6.6213 1.6799 1.2444 3.9003 2.0044 5.9589 1.309 7.6923-1.8653 15.336-3.9291 22.99-5.944 17.504-4.6592 34.956-9.5112 52.443-14.233 3.2626-3.3475 6.6091-6.6218 9.9016-9.9438 35.292-35.343 70.632-70.638 105.8-106.1 12.029-12.194 24.081-24.378 35.583-37.075 2.8313-3.2462 5.8367-6.5489 7.2606-10.697 1.3568-3.8318 2.3081-7.8171 2.8178-11.85 0.6846-5.6109-0.034-11.373-2.0768-16.644-2.0782-5.9183-5.5587-11.276-9.8329-15.843-5.5415-6.2378-11.723-11.965-18.67-16.608-4.7404-2.9784-10.286-4.694-15.898-4.7069-2.2468-0.095-4.4967-0.0683-6.7449-0.0537zm2.4922 24.119c3.2543 0.11761 6.7924 0.46001 9.3621 2.6832 4.7714 3.957 9.1071 8.4175 13.208 13.057 1.1668 1.4156 2.4038 2.8494 3.1271 4.5467 1.0062 3.1868 0.6988 6.6056 0.2029 9.8536-0.5613 2.6913-2.0573 5.0578-3.7409 7.1853-1.7663 2.3861-3.7637 4.5869-5.6926 6.8401-11.709-11.133-22.998-22.693-34.428-34.109 4.2817-3.4532 8.4121-7.3855 13.666-9.3118 1.3829-0.46153 2.8359-0.73383 4.2954-0.74486zm-33.629 29.029c10.839 10.839 21.677 21.678 32.516 32.518-36.657 36.691-73.188 73.508-110.09 109.95-1.6163 1.582-3.2327 3.1639-4.8488 4.7461-11.45-11.004-22.567-22.346-33.797-33.572 38.267-38.354 76.537-76.706 114.8-115.06 0.472 0.47201 0.944 0.94401 1.4161 1.416zm-124.87 139.66c6.3796 6.2663 12.614 12.677 18.801 19.133-9.8468 2.8279-19.734 5.5093-29.619 8.1992 2.7056-9.9292 5.5159-19.828 8.4335-29.697 0.795 0.78841 1.5899 1.5768 2.3848 2.3652z"/></g></g><path d="m258.37 67.522c-19.893 0.34817-37.886 16.97-40.127 36.731-2.1451 15.835 5.9032 32.383 19.576 40.569 13.423 8.6219 31.811 8.126 44.886-0.94341 11.706-7.6044 18.871-21.466 18.432-35.422-0.11804-12.817-6.4135-25.484-16.977-32.837-7.3965-5.4357-16.607-8.3974-25.79-8.0965zm1.5837 21.958c9.7179-0.12646 19.215 8.2103 19.041 18.223 0.2005 4.4032-0.0291 9.1382-2.9807 12.681-3.6739 5.2358-9.798 8.5727-16.229 8.4461-9.8139 0.9919-19.025-7.3984-19.612-17.139-1.0038-5.9002 0.96185-12.118 5.3473-16.217 3.7755-3.8014 9.0686-6.0491 14.433-5.994zm-8.7938 70.639c-9.3944 0.34961-19.593-0.65544-28.244 4.0316-12.102 5.893-21.458 17.496-24.302 30.702-3.8861 26.729-6.6486 53.62-9.724 80.451-0.59455 7.8293-1.9167 15.69-1.3286 23.55 1.0898 9.2772 7.83 17.402 16.222 21.179 1.6974 0.78285 3.4842 1.3775 5.3046 1.7909 1.5954 10.445 1.8661 21.043 2.8128 31.559 1.9995 25.766 3.4728 51.583 5.9966 77.303 0.58711 4.3162 0.74578 9.7882 4.8412 12.365 4.6367 2.3315 10.059 1.2265 15.049 1.7198 18.148 0.39084 36.323 0.46907 54.459-0.33223 3.6168-0.0835 7.0866-2.499 7.7004-6.2101 1.8844-7.327 1.9306-14.984 2.7256-22.479 2.5965-31.325 4.3706-62.725 7.539-93.997 6.4755-1.2408 12.355-5.2913 16.262-10.558 4.5267-6.0779 6.3133-14.072 5.0808-21.441-2.5566-29.144-6.0567-58.205-9.8631-87.209-0.94684-6.288-1.6637-12.78-4.9187-18.383-6.037-11.611-17.289-20.922-30.337-23.097-11.72-1.101-23.515-0.87742-35.274-0.94344zm-13.333 22.098c14.196 0.14271 28.404-0.2239 42.592 0.23448 7.6634-0.26166 13.913 5.7638 17.161 12.224 2.4655 5.2456 2.2769 11.247 3.3077 16.864 3.2177 26.272 6.497 52.547 8.8826 78.909-0.0147 3.1745 0.8614 7.5863-2.6109 9.2893-3.7669 0.80281-7.8656 0.11592-11.563 1.587-3.4844 0.81426-5.4848 4.0921-6.0427 7.434-2.0709 13.091-2.6134 26.377-3.7382 39.575-1.8105 24.875-3.6583 49.746-5.4735 74.619-13.774 0.42939-27.578 0.43113-41.34 0.0151-3.0622-37.803-5.4448-75.662-8.6411-113.45-1.0115-5.2842-6.0397-9.3264-11.415-9.1453-3.0431-0.42618-6.7453 0.30017-8.9484-2.4548-1.2722-3.8464-0.17287-8.0194-0.0915-11.981 2.1858-23.242 5.0978-46.602 7.8308-69.876 0.8702-6.24 1.3494-12.55 2.6987-18.739 2.0824-6.7922 7.7522-11.857 14.186-14.471 0.97928-0.5088 2.0976-0.86071 3.2073-0.64407z" stroke-width="3.3962"/><path d="m258.37 0c-142.53-2e-5 -258.37 116.08-258.37 258.9 3e-5 142.82 115.84 258.89 258.37 258.89 48.019 0 93.011-13.175 131.56-36.107 0 0 8.8262-7.7116 0.70703-18.975s-21.721-0.60938-21.721-0.60938c-32.816 17.935-70.478 28.125-110.54 28.125-127.66 4e-5 -230.87-103.4-230.87-231.33 5e-5 -127.93 103.2-231.34 230.87-231.34 102.14 0 188.61 66.196 219.11 158.18 0 0 1.9314 15.896 16.375 14 14.444-1.896 12.375-14 12.375-14-31.56-107.27-130.68-185.74-247.86-185.74z"/></svg>
