<?xml version="1.0" encoding="UTF-8"?>
<!-- Created with Inkscape (http://www.inkscape.org/) -->
<svg width="130mm" height="130mm" version="1.1" viewBox="0 0 130 130" xml:space="preserve" xmlns="http://www.w3.org/2000/svg"><path d="m99.212 0.0060076c-3.3629 0.0029245-6.222 2.093-8.6835 4.1646-5.082 4.2114-9.6705 8.9628-14.399 13.557-13.664 13.554-27.212 27.225-40.825 40.83-6.725 6.7369-13.45 13.474-20.175 20.211-4.9623 15.089-10.125 30.111-14.811 45.287-0.34853 0.93932-0.52907 2.0438 0.095644 2.9155 0.8425 1.4231 2.2991 2.4467 3.8342 2.996 1.2561 0.20081 2.3955-0.56259 3.5892-0.82251 14.513-4.6128 28.933-9.5153 43.397-14.281 20.306-20.277 40.661-40.507 60.911-60.838 5.0022-5.093 10.1-10.123 14.576-15.696 1.7793-2.226 3.2612-4.8819 3.2669-7.8071 0.031-2.0073 0.0165-4.0268-0.18836-6.0243-0.33978-2.7366-1.6204-5.2777-3.4021-7.3588-2.9016-3.5928-6.2783-6.7617-9.5373-10.023-2.3315-2.2055-4.7229-4.4776-7.6566-5.8585-3.1348-1.4524-6.6287-1.2431-9.9913-1.2517zm2.5405 9.3817c2.1532-0.060196 4.1567 0.94534 5.7631 2.3108 2.9891 2.3967 5.656 5.1649 8.334 7.8963 1.6532 1.8101 3.3649 3.6866 4.2908 5.9891 0.76217 2.1435 0.28623 4.516-0.60353 6.5393-0.90431 1.608-2.3051 2.8698-3.5945 4.1682-0.41035 0.23913-0.83191 1.1465-1.2398 0.92253-7.4223-7.4696-14.845-14.939-22.267-22.409 2.1768-2.3516 4.8697-4.3369 7.9723-5.2424 0.44099-0.10695 0.88968-0.17947 1.3447-0.17508zm-15.295 13.412c7.3911 6.9387 14.439 14.228 21.638 21.364-19.732 19.728-39.464 39.457-59.196 59.185-7.5019-7.5055-15.004-15.011-22.506-22.517 18.6-18.552 37.087-37.242 55.867-55.586 1.1091-1.0777 2.2264-2.147 3.356-3.2035 0.28034 0.25253 0.56067 0.50506 0.84101 0.75759zm-64.494 67.918c6.1704 5.6364 11.943 11.675 17.888 17.556-9.0803 2.983-18.097 6.1886-27.286 8.8179 2.998-8.9075 5.8509-17.864 9.0069-26.717 0.13048 0.11432 0.26096 0.22863 0.39144 0.34295z" stroke-width=".53155"/></svg>
