<?xml version="1.0" encoding="UTF-8"?>
<!-- Created with Inkscape (http://www.inkscape.org/) -->
<svg width="130mm" height="130mm" version="1.1" viewBox="0 0 130 130" xml:space="preserve" xmlns="http://www.w3.org/2000/svg"><g transform="translate(-10.532 -36.854)"><path d="m116.56 161.04c9.593-3.1949 18.181-6.3156 19.084-6.9349 1.9731-1.3531 3.6839-3.7457 4.3565-6.0928 0.78212-2.7293 0.65835-101.15-0.13053-103.8-0.848-2.8404-4.133-6.0484-7.0076-6.8434-1.7178-0.47507-10.21-0.59099-35.013-0.47797-32.062 0.1461-32.794 0.17154-35.056 1.2191-3.3777 1.5641-5.8374 3.9508-7.4421 7.2213l-1.4165 2.8867-0.17178 13.145c-0.18607 14.239-0.029 16.123 1.4693 17.622 1.3859 1.387 4.076 1.2945 5.4677-0.18811 1.0758-1.1461 1.1039-1.5168 1.1046-14.608 7.19e-4 -15.014 0.17102-15.895 3.5011-18.121 1.7158-1.1472 1.8217-1.1531 19.8-1.1134l18.074 0.03995-5.5845 1.8825c-4.7464 1.5999-5.9375 2.2299-7.9364 4.1973-1.8585 1.8292-2.4709 2.8701-2.9192 4.9618-0.39186 1.8287-0.56721 15.598-0.56721 44.539v41.892h-9.5708c-9.1051 0-9.6548-0.0561-11.296-1.1533-3.3325-2.2281-3.5002-3.0995-3.5011-18.192-7.2e-4 -13.457-0.0043-13.507-1.1758-14.608-1.4806-1.3921-4.0664-1.4481-5.3965-0.11691-1.4983 1.4995-1.6554 3.3836-1.4693 17.622l0.17178 13.145 1.4165 2.8867c1.6048 3.2705 4.0645 5.6572 7.4421 7.2213 2.069 0.9581 3.4108 1.087 12.845 1.2337l10.534 0.16381 0.0029 2.8847c0.0058 5.9734 2.0611 9.9262 6.2464 12.013 1.4979 0.74702 3.4442 1.2847 4.6386 1.2815 1.2561-4e-3 8.8537-2.2688 19.5-5.8144zm-21.474-3.4387c-0.70212-1.0032-0.79031-6.6339-0.79031-50.458 0-38.665 0.13718-49.514 0.6346-50.188 0.58828-0.79701 33.135-12.037 34.854-12.037 0.40161 0 1.148 0.3784 1.6586 0.84088 0.88743 0.80376 0.92841 3.044 0.92841 50.746 0 42.383-0.10816 49.995-0.7176 50.502-0.91206 0.75755-33.171 11.63-34.664 11.683-0.61242 0.0218-1.4691-0.46851-1.9038-1.0896zm-57.374-40.765c0.80673-0.80737 1.2461-1.8236 1.2461-2.8821 0-1.4229-0.9355-2.5793-7.2118-8.9146l-7.2118-7.2796h42.9l1.2461-1.2471c1.6486-1.6499 1.6486-3.9852 0-5.6351l-1.2461-1.2471h-42.9l7.2118-7.2796c6.2763-6.3353 7.2118-7.4917 7.2118-8.9146 0-2.2018-1.9385-4.1292-4.1527-4.1292-1.4874 0-2.8394 1.1799-12.969 11.317-10.37 10.378-11.308 11.463-11.308 13.071s0.93869 2.6926 11.308 13.071c10.13 10.138 11.482 11.317 12.969 11.317 1.0861 0 2.0916-0.43141 2.9066-1.2471z" stroke-width=".50788"/></g></svg>
