<?xml version="1.0" encoding="UTF-8"?>
<!-- Created with Inkscape (http://www.inkscape.org/) -->
<svg width="136.01mm" height="136.01mm" version="1.1" viewBox="0 0 136.01 136.01" xml:space="preserve" xmlns="http://www.w3.org/2000/svg"><g transform="translate(-357.76 -70.45)"><path d="m472.09 87.154c-2.2693 0.38316-3.7403 2.3339-5.3847 3.7527-3.7641 3.5942-7.4156 7.296-11.121 10.945-7.0791-2.4968-14.226-5.2707-21.806-5.6617-5.7986-0.42067-11.636-0.36348-17.428 0.12134-9.1632 0.97596-17.976 4.225-26.004 8.6751-12.461 6.9939-23.072 17.171-30.83 29.152-0.94622 1.4795-1.9724 3.1267-1.7051 4.9668 0.19093 1.4863 1.1523 2.7148 1.8558 3.9946 3.3722 5.1541 7.3881 9.866 11.692 14.264 4.6979 4.729 9.8042 9.082 15.431 12.672-0.32446 0.87621-1.1418 1.4872-1.7128 2.215-3.294 3.629-7.0406 6.8607-9.9903 10.791-1.0619 1.7198-0.51331 4.0314 0.93358 5.3523 1.1073 1.1047 2.9448 1.8191 4.4153 1.0567 2.7278-1.7499 4.9147-4.1832 7.2882-6.3611 10.994-10.585 21.71-21.457 32.534-32.217 16.011-16.004 32.049-31.984 47.913-48.133 2.951-3.0362 5.9517-6.0533 8.5404-9.411 1.0248-1.6442 0.12219-3.7391-1.1945-4.9232-0.92324-0.83777-2.1738-1.3295-3.4266-1.2507zm-46.953 18.035c7.8529-0.0822 15.7 1.4751 23.146 3.9902l-7.7598 7.7988c-3.7111-1.9124-7.5764-3.7782-11.791-4.1746-7.0425-0.87696-14.341 1.5277-19.642 6.2078-5.6772 4.9019-9.2746 12.293-9.0822 19.846 0.0338 4.3867 1.4058 8.6605 3.4498 12.509 0.28829 0.59746 0.60182 1.1823 0.90192 1.7739-3.3854 3.3744-6.7708 6.7487-10.156 10.123-4.5678-2.9757-9.0233-6.1324-13.039-9.855-4.5904-4.2051-8.7937-8.8522-12.435-13.903-0.397-0.50754-0.71041-1.2059-0.23634-1.7731 1.3346-2.1885 3.0676-4.1085 4.7174-6.0637 4.1629-4.7508 8.7108-9.1735 13.731-13.056 4.2856-3.2501 9.0304-6.0618 13.969-8.2121 7.6435-3.3549 15.876-5.1494 24.227-5.211zm45.252 6.6562c-1.7903 0.51786-2.902 2.1359-4.2373 3.3174-0.75717 0.74737-1.5954 1.7891-1.2901 2.915 0.75845 1.5308 2.4413 2.2237 3.5584 3.4406 5.0423 4.5489 9.6836 9.5476 13.865 14.897 0.44894 0.67921 1.0494 1.379 1.1793 2.1844-0.36621 1.1074-1.2397 1.9614-1.8837 2.9142-4.2149 5.4081-9.0473 10.328-14.264 14.772-8.5443 7.1079-18.823 12.455-29.794 14.351-6.8504 1.1679-13.94 1.4485-20.86 0.38675-1.7291-0.21649-3.4508-0.58694-5.183-0.71878-1.1095 0.17589-1.5439 1.3685-2.346 2.0091-1.7539 1.8686-3.5069 3.738-5.2614 5.6061 6.3454 1.7184 12.824 3.4284 19.457 3.1852 5.8944-0.0333 11.837-0.19989 17.629-1.3845 14.868-3.2097 28.419-11.309 39.135-21.996 4.7983-4.8397 9.1953-10.126 12.718-15.972 0.92535-1.6038 1.3969-3.6708 0.456-5.3778-1.7376-3.9539-4.5397-7.3049-7.2362-10.633-4.0003-4.7157-8.379-9.1274-13.157-13.055-0.70508-0.5332-1.5802-0.97394-2.4853-0.84188zm-44.938 10.447c2.7568-0.0716 5.5732 0.44257 7.998 1.7949-7.3876 7.3201-14.727 14.691-22.096 22.031-0.94608-2.3312-1.6784-4.7262-1.6602-7.2441-0.13686-3.6418 0.75137-7.4588 3.1791-10.267 2.5706-3.2942 6.3384-5.876 10.594-6.1841 0.68729-0.0683 1.3111-0.10962 1.9844-0.13086zm24.695 9.5898c-2.771 1.9135-5.0179 4.4935-7.041 7.1625-1.4676 1.9497-1.5269 4.5124-2.7027 6.6066-1.9599 3.97-5.565 7.1586-9.8657 8.3297-2.2332 0.6866-4.4866 1.5513-6.2003 3.1994-1.7884 1.5582-3.4854 3.2523-4.8895 5.1666-0.47135 0.60549 0.12484 1.3839 0.82226 1.3086 3.7166 1.1176 7.6907 0.65604 11.427-0.11115 3.8902-0.83889 7.6292-2.5794 10.535-5.3351 3.2909-2.9107 6.2962-6.3677 7.741-10.585 1.5999-4.4334 2.1089-9.2842 1.2481-13.933-0.1181-0.75518-0.27083-1.5043-0.40629-2.2567-0.22266 0.14909-0.44532 0.29817-0.66797 0.44726z"/></g></svg>
