<?xml version="1.0" encoding="UTF-8"?>
<!-- Created with Inkscape (http://www.inkscape.org/) -->
<svg width="136.61mm" height="136.61mm" version="1.1" viewBox="0 0 136.61 136.61" xml:space="preserve" xmlns="http://www.w3.org/2000/svg"><g transform="translate(-377.84 -86.086)"><path d="m436.79 86.092c-13.859 0.10139-27.727 0.04668-41.574 0.68446-2.968 0.30718-5.5889 2.0812-7.6181 4.1808-1.5053 1.5755-2.5935 3.4929-3.4278 5.4906-0.76484 1.2529-0.33926 2.7546-0.44496 4.1321 0.0133 35.543-0.0669 71.086 0.0948 106.63 0.0566 4.4799 0.0334 8.9852 0.44402 13.421 0.0801 0.74027 0.58286 1.4493 1.3782 1.4842 2.2275 0.40922 4.5143 0.28884 6.769 0.4019 11.525 0.23727 23.054 0.13217 34.581 0.17557 17.142-3e-3 34.285 0.0598 51.426-0.15092 1.9841-0.0745 4.0059-0.0739 5.9448-0.51973 1.1817-0.46757 1.6398-1.8052 1.5922-2.985 0.43231-4.848 0.28694-9.7575 0.36082-14.65 0.10612-29.702 0.0375-59.404 0.0562-89.106 6.7242-0.0809 13.498 0.21147 20.184-0.32422 0.77612-0.0676 1.6113-0.54107 1.6364-1.404 0.40793-1.8092 0.28153-3.529 0.37246-5.4128 5e-3 -3.5802 0.17392-7.1566-0.32493-10.687-1.0011-4.7133-4.7536-8.5868-9.2211-10.305-2.062-0.60805-4.2851-0.40278-6.3621-0.56686-12.545-0.41027-25.098-0.41766-37.648-0.47897-6.0729-0.02663-12.146-0.01036-18.219-0.0089zm-40.531 6.9316c12.905 0.06622 25.81 0.01083 38.715 0.0293h46.711c-0.94739 1.6029-1.5976 3.4111-1.5565 5.2934-0.43136 7.0371-0.30788 14.161-0.38432 21.238-0.14835 32.078-0.19532 64.157-0.28187 96.236h-89.396v-116.07c1.1162-2.4272 2.5086-4.9372 4.9372-6.2649 0.3711-0.25863 0.78608-0.49972 1.2562-0.46555zm98.41 0.02734c2.7453 0.07553 5.2577 1.8842 6.4012 4.3482 1.0473 1.8455 1.2066 4.0136 1.0763 6.0888-0.026 1.7286-0.0944 3.4562-0.14945 5.1841-5.2076 0.0933-10.415 0.18141-15.623 0.27343 0.11187-3.5824-0.27267-7.2107 0.37497-10.755 0.97322-3.3604 4.5263-5.3977 7.92-5.1394zm-60.012 15.896c-2.1494 0.26509-3.5201 2.562-3.3086 4.6094-0.0609 0.98387-1.2209 0.97234-1.9119 1.2658-3.8829 1.3354-6.5256 5.3395-6.5235 9.4043-0.26045 3.0244 0.78092 6.2114 3.0916 8.2459 1.6602 1.6964 3.9456 2.7648 6.3284 2.8234 2.3471 0.16445 4.7532-0.11361 7.0427 0.55749 0.45467 1.7769 0.68828 3.738 0.0645 5.4961-0.69846 1.3137-2.3617 1.3742-3.6667 1.4065-1.7914 0.0695-3.774 0.10372-5.3264-0.91832-0.72794-0.48517-0.71943-1.3837-0.79249-2.1526-0.44508-2.2598-3.5787-3.5032-5.3277-1.8786-1.4397 1.3071-1.446 3.4977-0.7671 5.1917 1.0335 2.7611 3.2648 5.2656 6.187 6.027 0.45001 0.23544 1.3588-0.0822 1.5139 0.38311 0.10063 1.704 0.24326 3.7745 1.7381 4.9528 1.2872 1.0849 3.3422 0.65176 4.2617-0.70313 0.90155-1.1754 1.0636-2.7264 0.9707-4.1602 0.65468-0.55678 1.5838-0.32936 2.3106-0.75195 1.8906-0.808 3.5242-2.1986 4.762-3.8255 1.0315-1.3999 1.0726-3.1793 1.0915-4.8443 0.0402-1.9979 0.15199-4.0708-0.46167-5.9949-0.83724-1.9562-2.4524-3.561-4.3293-4.5326-3.0442-1.4232-6.4783-0.8104-9.7032-1.244-0.96507-0.13476-1.8928-0.79847-2.0156-1.8184-0.24268-1.2635-0.15371-2.599 0.12109-3.8457 0.42047-1.1262 1.7162-1.4325 2.7935-1.4501 1.9537-0.17037 3.9698-0.17025 5.8774 0.30975 1.0028 0.39084 1.3211 1.5115 1.4476 2.4764 0.38075 1.5513 1.8222 2.9777 3.5202 2.6698 1.8968-0.2152 3.4671-2.1994 2.9176-4.1007-0.52849-3.4101-2.9009-6.5388-6.2129-7.6599-0.60341-0.29845-1.4075-0.34277-1.926-0.68053-0.43251-1.1606 2e-3 -2.4884-0.64885-3.5984-0.54363-1.2082-1.8155-1.8613-3.1182-1.6597zm-6.8359 61.902c-8.4914 0.0879-16.997-0.0596-25.475 0.47266-1.6948 0.47452-2.0906 2.7075-1.3762 4.1224 0.47751 1.1684 1.6823 1.8951 2.9324 1.8474 5.0448 0.48703 10.122 0.3106 15.182 0.38877 15.219 0.0468 30.444 0.12761 45.658-0.29125 1.2933-0.0755 2.8855 0.0661 3.7179-1.1538 1.0028-1.2835 0.82884-3.1829-0.21984-4.3862-0.31847-0.41602-0.49395-1.2303-1.1816-1.0096-13.079 3e-3 -26.159 6e-3 -39.238 0.01zm-1.3848 14.287c-8.0173 0.0747-16.049-0.0782-24.053 0.44039-0.83854 0.0389-1.3924 0.73764-1.549 1.5113-0.36289 1.2329-0.22619 2.8073 0.77604 3.6901 1.6706 0.58657 3.4839 0.33707 5.2195 0.48073 13.378 0.32724 26.762 0.1742 40.143 0.21932h20.606c0.5928-1.1066 1.7568-2.0705 1.6777-3.4199-0.26574-1.1214-1.1243-1.9518-1.6777-2.9297-13.714 3e-3 -27.428 5e-3 -41.143 8e-3zm-6.3828 13.781c-5.52 0.0277-11.053-0.03-16.558 0.40957-1.2622 0.11897-2.3749 1.012-2.6814 2.2546-0.40477 1.2614-0.10474 3.0133 1.206 3.5955 2.9238 0.43321 5.8992 0.29823 8.9071 0.40259 18.885 0.28178 37.772 0.13159 56.658 0.18542 0.90387-1.2712 1.9906-2.8163 1.3894-4.4527-0.44112-1.486-2.0642-2.385-3.566-2.1587-14.715-0.31754-29.435-0.25292-44.152-0.24114-0.40093 2e-3 -0.80185 3e-3 -1.2028 5e-3z" stroke-width=".52917"/></g></svg>
