<?xml version="1.0" encoding="UTF-8"?>
<!-- Created with Inkscape (http://www.inkscape.org/) -->
<svg width="78.504mm" height="78.504mm" version="1.1" viewBox="0 0 78.504 78.504" xml:space="preserve" xmlns="http://www.w3.org/2000/svg"><g transform="translate(-74.782 -6.8188)"><g transform="translate(8.8462 .00010247)"><g transform="matrix(.87113 0 0 .87113 13.145 -65.23)"><g stroke-width=".59039"><path d="m95.12 144.03c-1.7551-1.8389-5.2893-4.9094-7.7251-6.7114-1.193-0.88261-2.1256-1.6224-2.0725-1.644 0.31462-0.1281 5.4407 3.0954 8.3242 5.2346 3.2375 2.4018 5.582 4.8356 8.4717 8.7943 1.2894 1.7665 1.4644 1.933 1.9758 1.8804 0.47874-0.0492 0.58642-0.41695 0.56547-1.9312-0.043-3.1129-0.81296-6.0325-2.331-8.8399-1.4632-2.706-3.1678-4.6883-5.5729-6.4809-2.9245-2.1797-5.4214-3.4019-14.911-7.2989-4.3259-1.7765-6.2422-2.7895-8.6704-4.5832-0.92657-0.68446-1.2759-0.86675-1.5902-0.82982-0.50545 0.0594-0.66371 0.45972-0.41811 1.0576 0.49982 1.2168 1.1634 3.5937 1.9269 6.9021 0.46075 1.9965 1.1203 4.4841 1.4657 5.5279 1.4233 4.3018 4.229 8.4536 7.828 11.584 2.7682 2.4078 5.1081 3.659 10.737 5.7415 5.6474 2.0894 6.7521 2.6773 7.0997 3.7785-0.24593-0.93961-0.56353-7.3153-5.1034-12.182z" fill="#fc0" stroke="#d4aa00"/><path d="m71.705 121.62c-0.04144-3e-3 -0.08123-2e-3 -0.12051 3e-3 -0.50546 0.0594-0.66388 0.45985-0.41828 1.0578 0.49981 1.2168 1.1635 3.5938 1.927 6.9021 0.46075 1.9965 1.1203 4.4841 1.4657 5.528 1.4233 4.3017 4.229 8.4536 7.828 11.584 2.7682 2.4078 5.1083 3.6587 10.737 5.7412 5.6474 2.0894 7.0995 3.7786 7.0995 3.7786l1.7817-0.84023-0.84449-0.40943s-1.452-1.6892-7.0995-3.7786c-5.6288-2.0825-7.9689-3.3335-10.737-5.7412-3.599-3.1304-6.4047-7.2823-7.828-11.584-0.34537-1.0438-1.0049-3.5314-1.4657-5.528-0.68942-2.9873-1.2962-5.206-1.7756-6.5061-0.23306-0.13341-0.40344-0.19732-0.54978-0.20716zm14.598 12.806c-0.01902-2e-3 -0.03379-2e-3 -0.04363 2e-3 -0.05309 0.0216 0.87952 0.76153 2.0725 1.6441 2.4358 1.8021 5.9701 4.8725 7.7252 6.7114 0.18492 0.19375 0.37304 0.38565 0.56015 0.57815 0.73486 0.67781 1.442 1.3932 2.1454 2.1701 2.0063 2.0082 3.9691 3.9874 5.4681 6.0274 0.2958-0.0912 0.40534-0.40831 0.42561-1.2582-0.31646-0.12438-0.66521-0.5618-1.6011-1.844-2.8897-3.9587-5.234-6.3928-8.4715-8.7946-2.7934-2.0723-7.6914-5.1623-8.2808-5.2369z" fill="#d4aa00"/></g><path d="m101.18 172.42c-0.65687-0.28852-0.72953-0.55982-0.68647-2.5631 0.14352-6.6758 3.5878-13.57 9.7682-19.552 2.1904-2.12 6.5956-5.6566 9.629-7.7302 1.4857-1.0156 2.6476-1.8673 2.582-1.8926-0.38872-0.15007-6.7676 3.5549-10.359 6.0165-4.0319 2.7638-6.9577 5.5696-10.572 10.138-1.6128 2.0387-1.831 2.2306-2.4642 2.1669-0.59274-0.0596-0.72299-0.48612-0.68403-2.2398 0.0801-3.6049 1.0591-6.982 2.964-10.225 1.8362-3.1258 3.9652-5.4122 6.9606-7.475 3.6422-2.5083 6.7464-3.9101 18.537-8.3711 5.375-2.0336 7.7581-3.1962 10.782-5.2602 1.1539-0.78761 1.5883-0.9968 1.9773-0.95229 0.62575 0.0716 0.81837 0.53605 0.50895 1.2272-0.62972 1.4065-1.4723 4.1556-2.4467 7.9829-0.58802 2.3097-1.4266 5.187-1.8635 6.394-1.8004 4.9741-5.3124 9.7671-9.7984 13.373-3.4505 2.7733-6.3604 4.2095-13.352 6.5903-7.0152 2.3887-8.3889 3.0635-8.829 4.337-0.49607 1.4354-0.84246 3.6145-0.87577 5.5096-0.0177 1.0066-0.1006 1.9702-0.18425 2.1412-0.2147 0.43897-1.0249 0.63439-1.594 0.38445z" fill="#0a0" stroke="#008000" stroke-width=".59039"/><path d="m139.46 124.47c-0.28469 0.0166-0.63866 0.18022-1.2719 0.5873-0.57607 1.5432-1.2821 3.9362-2.0786 7.0647-0.58802 2.3097-1.4266 5.1871-1.8635 6.3941-1.8004 4.9741-5.3123 9.7669-9.7983 13.372-3.4505 2.7733-6.3606 4.2097-13.353 6.5906-7.0151 2.3887-8.3886 3.0634-8.8287 4.3369-0.17295 0.50042-0.55899 1.0946-0.98545 1.7323-0.48583 1.7687-0.75511 3.5428-0.79293 5.3019-0.0431 2.0033 0.0296 2.2746 0.68646 2.5631 0.56903 0.24994 1.3791 0.0545 1.5938-0.38442 0.0836-0.17103 0.16656-1.1345 0.18427-2.1411 0.0333-1.895 0.37984-4.0743 0.87591-5.5096 0.44012-1.2734 1.8136-1.9482 8.8287-4.3369 6.992-2.3808 9.9021-3.8173 13.353-6.5906 4.486-3.6056 7.9978-8.3983 9.7983-13.372 0.43688-1.207 1.2755-4.0844 1.8635-6.3941 0.97439-3.8273 1.8171-6.5766 2.4468-7.983 0.30943-0.6911 0.11655-1.1555-0.5092-1.2271-0.0486-5e-3 -0.0978-7e-3 -0.14919-4e-3zm-18.609 14.64c-0.73095 0.0832-6.8262 3.6348-10.305 6.0194-4.0318 2.7638-6.9577 5.5697-10.572 10.138-0.79929 1.0104-1.2556 1.566-1.5901 1.8629-0.01 1.4306 0.1416 1.811 0.68798 1.8659 0.63324 0.0637 0.85142-0.12802 2.4642-2.1668 0.1104-0.13956 0.21849-0.2725 0.32766-0.40882 1.9397-2.6621 4.3134-5.2493 6.8301-7.6852 2.1904-2.12 6.5956-5.6568 9.629-7.7304 1.4857-1.0156 2.6476-1.8672 2.582-1.8925-0.0122-5e-3 -0.0301-6e-3 -0.0537-3e-3z" fill="#008000" stroke-width=".20472"/></g><g transform="matrix(.9896 0 0 .9896 .62571 -82.974)"><path d="m105.47 91.032c1.2156 0 2.1318 0.87248 2.4816 2.1273l11.213 28.762c0.55609 1.5586 0.84202 3.2008 0.84547 4.8556 1e-5 8.0304-6.5099 14.54-14.54 14.54-8.0304 0-14.54-6.5099-14.54-14.54 2.71e-4 -1.6543 0.28284-3.2964 0.83555-4.8556l11.216-28.762c0.3504-1.2573 1.2727-2.1273 2.4883-2.1273z" fill="#5df" stroke="#0cf" stroke-width=".59039"/><path d="m96.539 119.23a0.72389 0.72389 0 0 1 0.25321 0.99191 0.72389 0.72389 0 0 1-0.03164 0.0487l0.0045 3e-3c-1.9998 3.3714-2.1669 7.5234-0.4447 11.045 0 0 0.40339 0.79415-0.2641 1.1264-0.66748 0.33224-1.0622-0.38151-1.0622-0.38151-1.9566-3.9666-1.7771-8.6531 0.47706-12.458 0.0147-0.0242 0.02939-0.0484 0.04433-0.0724l0.0035 2e-3a0.72389 0.72389 0 0 1 0.02756-0.0511 0.72389 0.72389 0 0 1 0.99192-0.25321z" fill="#d5f6ff" stroke="#d5f6ff" stroke-width=".4362"/><path d="m113.72 107.54 1.847 15.268c0.16655 1.6465 0.0507 3.3093-0.34232 4.9168-1.9235 7.7966-9.8032 12.558-17.6 10.634-0.5201-0.12831-1.0261-0.28421-1.5181-0.46374 2.5305 2.1345 5.799 3.4216 9.3687 3.4216 8.0304 1e-5 14.54-6.5097 14.54-14.54-4e-3 -1.6548-0.28933-3.2972-0.84541-4.8558z" fill="#0cf"/></g></g></g></svg>
