<?xml version="1.0" encoding="UTF-8"?>
<!-- Created with Inkscape (http://www.inkscape.org/) -->
<svg width="130.68mm" height="130.68mm" version="1.1" viewBox="0 0 130.68 130.68" xml:space="preserve" xmlns="http://www.w3.org/2000/svg"><g transform="translate(-374.53 -43.025)"><g transform="translate(198.75,19.929)" fill="none" stroke="#000" stroke-linecap="round" stroke-width="10"><path d="m241.13 118.16v9.7537m9.1212-19.984a9.1212 9.1212 0 0 1-9.1212 9.1212 9.1212 9.1212 0 0 1-9.1212-9.1212 9.1212 9.1212 0 0 1 9.1212-9.1212 9.1212 9.1212 0 0 1 9.1212 9.1212z"/><path d="m273.06 59.409v21.17m0-21.17c1.8e-4 -17.294-14.297-31.313-31.934-31.313-17.637-9.6e-5 -31.934 14.019-31.934 31.313v21.17m-5.4369 0h74.742c4.2248 0 7.626 3.4012 7.626 7.6261v52.948c0 4.2248-3.4012 7.6261-7.626 7.6261h-74.742c-4.2248 0-7.6261-3.4012-7.6261-7.6261v-52.948c0-4.2248 3.4012-7.6261 7.6261-7.6261z"/></g></g></svg>
