<?xml version="1.0" encoding="UTF-8"?>
<!-- Created with Inkscape (http://www.inkscape.org/) -->
<svg width="130.68mm" height="130.68mm" version="1.1" viewBox="0 0 130.68 130.68" xml:space="preserve" xmlns="http://www.w3.org/2000/svg"><g transform="translate(-374.53 -43.025)"><g transform="translate(198.75,19.929)" stroke-linecap="round" stroke-width="10"><path d="m241.13 93.809c-7.7397 0-14.121 6.3814-14.121 14.121 0 5.9778 3.8219 11.109 9.1211 13.152v6.832a5 5 0 0 0 5 5 5 5 0 0 0 5-5v-6.832c5.2983-2.0434 9.1211-7.1752 9.1211-13.152 0-7.7397-6.3814-14.121-14.121-14.121zm0 10c2.3353 0 4.1211 1.7858 4.1211 4.1211s-1.7858 4.1211-4.1211 4.1211-4.1211-1.7858-4.1211-4.1211 1.7858-4.1211 4.1211-4.1211z" color="#000000" style="-inkscape-stroke:none"/><path d="m241.13 23.096c-20.287-1.1e-4 -36.936 16.263-36.936 36.312v16.17h-0.43555c-6.9084 0-12.627 5.7186-12.627 12.627v52.947c0 6.9084 5.7186 12.627 12.627 12.627h74.742c6.9084 0 12.625-5.7186 12.625-12.627v-52.947c0-6.9083-5.7167-12.627-12.625-12.627h-0.4375v-16.17c2.1e-4 -20.05-16.647-36.312-36.934-36.312zm-2e-3 10h2e-3c14.987 0 26.934 11.774 26.934 26.312v16.17h-53.869v-16.17c0-14.538 11.946-26.313 26.934-26.312zm-37.369 52.482h74.742c1.5413 0 2.625 1.0855 2.625 2.627v52.947c0 1.5413-1.0838 2.627-2.625 2.627h-74.742c-1.5413 0-2.627-1.0856-2.627-2.627v-52.947c0-1.5413 1.0856-2.627 2.627-2.627z" color="#000000" style="-inkscape-stroke:none"/></g></g></svg>
