<?xml version="1.0" encoding="UTF-8"?>
<!-- Created with Inkscape (http://www.inkscape.org/) -->
<svg width="173.24mm" height="173.24mm" version="1.1" viewBox="0 0 173.24 173.24" xml:space="preserve" xmlns="http://www.w3.org/2000/svg"><g transform="translate(-35.758 -70.665)"><path d="m113.39 70.666c-15.003 0.05389-30.01-0.11532-45.009 0.30423-3.2662 0.13197-6.5939 0.1775-9.7602 1.0669-2.4124 0.84537-4.1809 3.1494-4.4265 5.6886-0.76848 4.8043-0.70327 9.6894-0.83836 14.54-0.29143 17.443-0.18059 34.89-0.21412 52.335-0.0011 24.632-0.0023 49.264-0.0035 73.896 8.4327 8.4677 16.866 16.935 25.297 25.404 22.994-0.0144 45.989 0.0393 68.984-0.0358 6.1083-0.0741 12.251-0.0534 18.308-0.93684 2.6402-0.42698 5.5938-1.1663 7.2027-3.4977 1.5657-2.4116 1.283-5.4205 1.325-8.162-0.0183-3.5333-0.0234-7.0666-0.0199-10.6 2.1881 1.636 4.7152 3.0801 7.5265 3.0813 3.0128 0.0691 5.8811-1.507 7.7474-3.8206 1.6802-1.8884 2.6417-4.6018 1.8242-7.0841-0.95859-3.4049-3.3699-6.1268-5.63-8.7486-3.5381-3.9639-7.3394-7.6873-11-11.533-0.75968-0.47571-0.3797-1.434-0.46816-2.1692-0.0243-19.086 0.0668-38.172-0.0849-57.257-0.089-3.9167-0.0234-7.8703-0.69808-11.741-0.22022-1.2257-1.058-2.5388-2.4283-2.5823-1.2812-0.21349-2.8457 0.33243-3.1999 1.7057-0.82388 2.3604-0.71773 4.9082-0.85816 7.3714-0.30333 10.767-0.14659 21.539-0.19341 32.308 0 8.1971 1e-5 16.394 0 24.591-10.493-10.493-20.987-20.987-31.48-31.48 3.5087-3.4508 6.7588-7.1948 10.607-10.284 1.6146-1.2778 3.605-2.2282 5.7107-2.0834 3.916-0.132 7.8869-2.6925 8.931-6.5905 0.50241-1.5638 0.45909-3.3708-0.52595-4.7436-2.3474-3.9876-5.5114-7.4091-8.5776-10.846-5.5178-5.9913-11.288-11.786-17.657-16.875-1.5807-1.2121-3.2101-2.5166-5.1536-3.0634-2.4703-0.34664-4.9077 0.93702-6.6277 2.6286-2.2842 2.2384-3.4499 5.4659-3.391 8.6385-0.33705 2.5814-2.2404 4.5405-3.8009 6.4827-5.6576 6.4822-11.868 12.45-17.912 18.564-5.2741 5.2264-10.445 10.561-16.118 15.371-1.8394 1.5193-3.9413 3.124-6.4543 3.0568-4.3168 0.0806-8.655 2.8327-10.089 6.9882-0.47947 1.37-0.61274 2.9527 0.18642 4.2367 1.7091 2.932 3.9713 5.4965 6.182 8.0574 5.035 5.6126 10.359 10.969 15.969 16.007 2.5803 2.2247 5.1423 4.5238 8.0786 6.2716 1.043 0.61613 2.2858 0.79795 3.4549 0.46968 3.5807-0.7975 6.4038-3.8195 7.5217-7.2392 0.42291-1.2098 0.37638-2.5038 0.57017-3.7472 0.67129-2.5889 2.622-4.56 4.3371-6.5126 3.3433-3.6314 6.9922-6.9707 10.435-10.5 0.28984-0.21681 0.66284 0.67263 1.0033 0.82455 14.952 14.922 29.904 29.844 44.856 44.765-0.23112 7.5293-0.46224 15.059-0.69336 22.588-27.602 0.22982-55.204 0.45964-82.807 0.68945-0.06673-4.8124 0.21392-9.648-0.31375-14.442-0.2851-2.5472-1.2232-5.3363-3.5932-6.6575-2.6192-1.5196-5.759-1.5176-8.6968-1.6236-3.3791-0.0659-6.759-0.0203-10.138-0.0333 0.22786-44.97 0.45573-89.94 0.68359-134.91h104.9c0.27473 3.6937 0.22785 7.4757 0.91407 11.145 0.27578 1.3934 1.3078 2.8088 2.8423 2.8537 1.4337 0.24234 3.2808-0.25605 3.7152-1.8182 0.81955-2.534 0.49115-5.2415 0.59122-7.8605 1e-3 -2.4367 0.26969-5.0172-0.72099-7.3118-0.99702-2.0349-3.1811-3.0903-5.2949-3.5664-4.0214-1.0047-8.1965-1.0895-12.316-1.2874-11.556-0.40563-23.122-0.24496-34.683-0.28795-2.6083 3.88e-4 -5.2167 7.76e-4 -7.825 0.0012zm-4.9648 14.717c-3.4664 0.09757-6.995-0.11671-10.399 0.65467-1.2012 0.32533-2.1813 1.4389-2.1048 2.7222-0.16111 1.3212 0.40629 2.9213 1.8197 3.2833 2.3551 0.78859 4.8858 0.63079 7.3342 0.72862 6.6813 0.08901 13.367 0.1205 20.046-0.07318 1.7195-0.09213 3.5407-0.13538 5.1084-0.91828 1.347-0.8586 1.4749-2.7513 0.99986-4.134-0.42777-1.2175-1.7439-1.6479-2.9006-1.8298-3.0834-0.48753-6.2235-0.3511-9.3348-0.43045-3.5232-0.02152-7.0463-0.0059-10.57-0.0031zm38.42 7.248c-2.5759 0.19764-4.4535 2.2617-5.9297 4.1816-0.79838 1.1846-0.6383 2.8513 0.35842 3.8723 0.76932 1.0445 1.8024 2.3782 3.2588 2.1804 1.4329-0.26129 2.411-1.4783 3.4258-2.418 1.3333-1.4093 2.6651-3.3615 2.0639-5.3949-0.35034-1.4302-1.6631-2.5579-3.1771-2.4216zm13.875 3.0527c-2.0118 0.31345-3.3804 1.9933-4.8313 3.2608-2.2254 2.1831-4.6454 4.2759-6.2569 6.9788-0.65822 1.165-0.62586 2.7696 0.39799 3.7186 0.83222 1.0942 2.2808 2.1415 3.7011 1.5131 1.989-0.81262 3.371-2.5534 4.8947-3.9925 1.8881-1.9694 4.0486-3.8582 5.3881-6.2951 0.60673-1.2949 0.21332-2.867-0.80136-3.8387-0.60472-0.75065-1.4707-1.4364-2.4924-1.345zm14.135 2.375c-2.1484 0.24651-3.6947 1.9554-5.2366 3.3005-3.6182 3.4238-7.252 6.8862-10.256 10.876-0.81306 1.1966-1.7283 2.5826-1.5448 4.0954 0.26586 1.2422 1.0946 2.3989 2.1777 3.0508 0.91621 0.46645 1.8867-0.0765 2.5402-0.72798 4.2626-3.4113 8.01-7.4041 11.841-11.279 1.3556-1.4904 2.8182-2.9516 3.7818-4.7351 0.5557-1.1018 0.38034-2.556-0.62594-3.3419-0.70878-0.70272-1.642-1.294-2.6777-1.2383zm-107.01 1.1387v8.4238c12.503-0.2345 25.01-0.32296 37.509-0.70808 2.5851-0.13828 5.2475-0.12264 7.7264-0.95372 1.1382-0.46205 1.7964-1.6939 1.6802-2.8968 0.0629-1.281-0.75925-2.577-2.0527-2.8535-2.5129-0.77684-5.1833-0.6942-7.7828-0.84908-10.5-0.35417-21.008-0.39779-31.512-0.60968-1.8561-0.02975-3.7122-0.06191-5.5684-0.09006v0.53711zm59.74 7.4531c2.3783 1.394 4.3308 3.3847 6.3902 5.1932 5.8071 5.3625 11.382 10.992 16.565 16.983 0.87017 1.042 1.7879 2.1271 2.3984 3.3164-2.1354 1.2916-5.118 1.6199-7.1931 0.0207-3.4148-2.3147-6.2013-5.3991-9.142-8.2609-3.1632-3.2152-6.4542-6.3547-9.1083-10.018-0.9597-1.3541-1.5343-3.0932-1.0252-4.7341 0.20313-0.87757 0.43854-1.8886 1.1151-2.5zm-47.232 6.8066c-3.4679 0.0934-6.9972-0.11472-10.403 0.65482-1.2014 0.32537-2.1749 1.4412-2.101 2.7221-0.16111 1.3212 0.40629 2.9213 1.8197 3.2833 2.356 0.78805 4.887 0.63118 7.3362 0.72862 6.8209 0.0893 13.646 0.12463 20.465-0.088 1.6127-0.1162 3.342-0.16223 4.7852-0.96484 1.2552-0.90758 1.3774-2.7348 0.89843-4.0918-0.44607-1.1983-1.7437-1.6471-2.9045-1.8036-2.948-0.49053-5.956-0.35373-8.9335-0.43398-3.6542-0.0277-7.3085-9e-3 -10.963-7e-3zm50.949 14.838c2.9785 2.9779 5.957 5.9557 8.9356 8.9336-12.038 11.984-23.892 24.156-36.201 35.865-0.57499 0.54043-1.1616 1.0678-1.7598 1.5825-4.6443-3.9936-8.8481-8.4621-13.189-12.775-1.5366-1.5482-3.0732-3.0963-4.6098-4.6445 12.632-12.631 25.263-25.262 37.895-37.893 2.9766 2.9772 5.9531 5.9544 8.9297 8.9316zm-54.98-0.1289c-2.3725 0.10487-4.8772-0.11036-7.1113 0.83789-1.4384 0.83116-1.594 2.7592-1.207 4.2109 0.29952 1.1057 1.341 1.8134 2.44 1.9572 2.7186 0.5673 5.5213 0.37023 8.2807 0.43282 3.36-0.0241 6.7551 0.13789 10.081-0.41642 1.2793-0.23239 2.5107-1.2404 2.5089-2.6282 0.21519-1.385-0.15676-3.1727-1.6466-3.6807-2.173-0.81829-4.55-0.60747-6.8276-0.7097-2.1727-0.0273-4.3456-8e-3 -6.5185-4e-3zm-3.9473 13.359c-1.4966 6e-3 -3.4015 0.21219-4.1014 1.7618-0.61323 1.6501-0.52334 3.5025-0.15442 5.1972 0.46069 1.306 1.9568 1.8795 3.2502 1.6768 2.0399-0.0441 4.4547-0.43023 5.6283-2.3069 0.8189-1.3724 1.0387-3.1175 0.62464-4.6519-0.61-1.46-2.4049-1.6717-3.792-1.6667-0.48487-0.0234-0.97014-0.01-1.4553-0.0103zm56.549 18.451c1.9185 0.60298 3.3362 2.1416 4.8521 3.3865 5.3698 4.7895 10.394 9.9348 15.51 14.989 9.9293 9.9328 19.955 19.784 29.419 30.165 1.7492 1.9902 3.5427 3.9827 4.9101 6.2612 0.30252 0.56-0.40936 0.96513-0.72851 1.3301-0.51554 0.55615-0.95957-0.22602-1.3984-0.47265-4.143-3.4388-7.9712-7.2357-11.884-10.929-10.977-10.54-21.695-21.347-32.362-32.2-2.9756-3.0783-6.0191-6.1317-8.5923-9.514-0.41765-0.64592-1.1332-1.3785-0.91533-2.1912 0.27356-0.39329 0.67249-0.82825 1.1895-0.82422zm-53.203 1.0684c2.3361 0.36249 4.1408 2.0664 5.912 3.4944 4.3459 3.7644 8.3265 7.915 12.276 12.084 1.6431 1.811 3.38 3.661 4.3004 5.9625 0.48882 1.7554-0.0057 3.64-0.82812 5.2109-3.769-2.6351-6.9749-5.9688-10.273-9.1509-4.8257-4.792-9.56-9.7002-13.83-15-0.44128-0.58478-1.0058-1.2326-1.2334-1.8789 1.0993-0.63041 2.4321-0.763 3.6758-0.72266zm19.859 37.967c-7.5657 0.0727-15.146-0.0861-22.697 0.4579-1.554 0.1643-3.36 0.24737-4.5081 1.4444-0.74275 1.0064-0.714 2.5282-0.05216 3.5557 1.0366 1.293 2.8649 1.3118 4.3726 1.5048 5.8571 0.50382 11.744 0.39534 17.617 0.4611 14.905 0.0395 29.811 0.081 44.716-0.0745 3.7087-0.0775 7.4481-0.0671 11.114-0.68733 1.2427-0.20164 2.6008-1.0107 2.6706-2.4003 0.23461-1.2878-0.36019-2.8541-1.741-3.1803-2.354-0.80528-4.8787-0.70954-7.3117-0.8601-11.582-0.33509-23.171-0.18482-34.756-0.22667-3.1414 2e-3 -6.2828 4e-3 -9.4242 5e-3zm19.145 12.031c-6.6334 0.0803-13.286-0.0972-19.9 0.49386-1.3997 0.16508-3.1138 0.36152-3.9178 1.6768-0.66738 1.3466-0.44298 3.3637 1.0307 4.0764 1.7155 0.8247 3.6922 0.73479 5.5457 0.91704 6.4804 0.33718 12.973 0.24017 19.46 0.28124 11.406-6e-3 22.815 0.088 34.219-0.15826 2.6345-0.0974 5.3267-0.0995 7.8797-0.81968 1.1185-0.36035 1.9334-1.4577 1.8382-2.6472 0.12887-1.3023-0.71958-2.6486-2.0484-2.8866-2.7006-0.76852-5.5455-0.65159-8.3248-0.78117-11.127-0.25898-22.258-0.12134-33.387-0.15416-0.79857 5.8e-4 -1.5971 1e-3 -2.3957 2e-3zm-44.742 10.131c1.7567 0.0834 3.7067-0.0254 5.2578 1.0098 0.5618 0.8641 0.37536 1.9807 0.49733 2.9631 0.04102 1.6365-0.14243 3.1725-0.30397 4.7908-2.8594-2.9212-5.7188-5.8424-8.5781-8.7637h3.127zm44.742 0.56445c-6.6334 0.0788-13.286-0.0974-19.9 0.49386-1.4279 0.16816-3.2168 0.37231-3.971 1.7776-0.60837 1.3628-0.33935 3.334 1.1414 4.0096 1.7697 0.79947 3.7793 0.71437 5.6765 0.89142 6.4181 0.32728 12.849 0.23095 19.273 0.27098 11.373-7e-3 22.748 0.0892 34.118-0.15444 2.6373-0.0942 5.3263-0.10044 7.8891-0.78937 1.155-0.34195 2.0326-1.4541 1.929-2.6815 0.12524-1.2932-0.70806-2.6388-2.0309-2.8768-2.5717-0.75361-5.2897-0.6506-7.9413-0.77969-10.96-0.27069-21.925-0.12813-32.887-0.16391-1.099 7.3e-4 -2.1979 1e-3 -3.2969 2e-3z" stroke-width="1.3368"/></g></svg>
