<?xml version="1.0" encoding="UTF-8"?>
<!-- Created with Inkscape (http://www.inkscape.org/) -->
<svg width="139.71mm" height="139.71mm" version="1.1" viewBox="0 0 139.71 139.71" xml:space="preserve" xmlns="http://www.w3.org/2000/svg"><g transform="translate(-35.145 -44.514)"><path d="m84.742 61.474c-12.051 0.07912-24.109-0.0483-36.155 0.32527-5.2445 0.82276-9.9187 4.6786-12.077 9.5997-1.6341 3.4066-1.0496 7.1663-1.222 10.869-0.2119 19.829-0.14984 39.661-0.0532 59.491 0.0541 4.0872 0.0287 8.1845 0.2754 12.263 0.87905 5.1398 4.604 9.5391 9.2204 11.813 1.76 0.81734 3.7106 1.2308 5.5502 1.2608 7.451-0.0133 14.904 0.1036 22.356 0.11496 26.319 0.10366 52.639 0.0659 78.957-0.0473 3.2946-0.0534 6.5997 3e-3 9.8857-0.23568 5.526-0.81529 10.173-5.0276 12.262-10.105 0.83052-2.0814 1.0032-4.261 0.93687-6.4621 0.24146-19.99 0.18947-39.982 0.11476-59.973-0.0638-5.1489-0.0277-10.306-0.27304-15.448-0.66936-4.5267-3.6196-8.51-7.3918-10.928-2.5779-1.7653-5.7479-2.5024-8.8472-2.3238-18.078-0.2759-36.159-0.18101-54.239-0.2193-6.4335-0.0037-12.867 0.0039-19.3 0.0064zm61.135 9.8633c4.8524 0.09374 9.7293-0.12785 14.563 0.32543 2.8539 0.75085 4.7545 3.8049 4.382 6.6968 0.40816 22.58 0.32025 45.166 0.0964 67.748-0.058 2.3431-0.0474 4.7078-0.36525 7.0282-0.81634 2.798-3.8772 4.5202-6.7039 4.1733-19.861 0.30326-39.726 0.13373-59.588 0.15983-16.059-0.0296-32.124 7e-3 -48.179-0.25824-2.5564-0.49557-4.82-2.7583-4.8433-5.4426-0.18984-2.4044-0.11956-4.8222-0.19838-7.2323-0.188-15.163-0.0567-30.328-0.0933-45.492 0.0276-7.541-0.0436-15.092 0.35003-22.623 0.17364-1.6232 1.1623-3.0773 2.5521-3.9121 1.2512-0.95515 2.864-1.2623 4.4047-1.1059 31.208-0.07026 62.415-0.09146 93.623-0.06545zm-67.506 12.84c-2.5194 0.1064-5.0978 0.99814-7.1234 2.2627-3.6224 2.1812-6.4819 6.0665-7.361 10.192-0.48881 2.0667-0.55185 4.2018-0.22766 6.2228 0.53286 3.6292 2.4338 6.9894 5.1808 9.4042 2.8978 2.6195 6.7906 4.1762 10.564 4.2271 6.9929 0.12947 13.612-4.8672 15.668-11.507 1.5043-4.8414 0.47834-10.329-2.5554-14.374-2.751-3.814-7.2732-6.296-11.989-6.425-0.71829-0.04118-1.4382-0.03268-2.1568-0.0031zm75.264 5.5742c-12.184 0.04102-24.367 0.02969-36.551 0.0293-1.6054 1.3131-3.2108 3.2088-2.8223 5.4375 0.29989 1.8438 1.7879 3.136 3.0645 4.3633 12.562-0.0482 25.125-0.0964 37.688-0.14453 1.8874-1.3779 3.3891-3.824 2.6914-6.2112-0.66872-1.5245-1.9159-2.9228-3.5226-3.4428-0.18042-0.03505-0.36459-0.03606-0.54766-0.0316zm-73.285 4.3809c3.1134 2e-3 5.4983 3.059 5.5286 6.0265 0.13547 2.9515-2.1271 5.7129-4.9924 6.3082-3.4468 0.85199-7.1479-1.9037-7.5266-5.3897-0.43174-3.0876 1.7632-6.4555 4.9242-6.9099 0.68732-0.0528 1.3775-0.0264 2.0662-0.0351zm36.965 18.133c-1.5717 1.4024-3.3177 3.1922-3.0842 5.4794 0.13863 1.8226 1.5858 3.1383 2.8323 4.3155h37.854c1.1892-1.3391 3.0203-2.5516 2.965-4.5519-0.0119-2.103-1.2644-4.3409-3.3186-5.0288-2.5822-0.19576-5.1753-0.0201-7.7621-0.10516-9.8278-0.0344-19.662-0.0844-29.486-0.109zm-40.729 5.7031c-3.5848 0.0572-7.185-0.14724-10.758 0.21484-2.7058 0.3127-5.2238 1.5663-7.3886 3.1746-3.8002 2.8919-6.3871 7.6847-6.2281 12.574-0.0253 2.6914-0.41255 5.4886 0.4642 8.0886 1.083 2.3621 4.2863 3.437 6.5464 2.1096 1.5564-0.74688 2.5266-2.4458 2.4895-4.1572 0.36847-2.7907-0.18729-5.7321 0.84317-8.4147 1.0116-2.3069 3.5404-3.9008 6.075-3.5825 7.8736-0.0964 15.756-0.18415 23.625 0.0736 2.9519 0.45502 4.9977 3.4108 4.9973 6.2965 0.23433 2.7973-0.25016 5.7934 1.0424 8.3921 1.8382 2.6903 6.5665 2.5064 8.0501-0.45423 1.0474-2.0226 0.68125-4.3777 0.79023-6.5687-0.0217-4.1038-0.93418-8.527-3.7192-11.741-1.618-2.0188-3.8146-3.6578-6.1056-4.645-2.2562-1.0266-4.7518-1.3415-7.2103-1.2879-4.5037-0.0956-9.0091-0.0792-13.514-0.0727zm58.824 16.768c-5.3945 0.0385-10.798-0.051-16.184 0.29688-1.1618 0.0957-2.5901 0.24955-3.4609 1.2227-1.9231 1.8468-2.0854 5.3791 0.0654 7.1242 1.3333 1.1807 3.2016 1.3308 4.8989 1.2385 10.527 0.31632 21.065 0.29258 31.59-0.0278 1.5732-0.0366 3.3536-0.28521 4.3622-1.6435 1.5624-1.7933 1.627-4.772-0.12062-6.4695-1.1836-1.2992-3.0452-1.6204-4.7229-1.5081-5.4723-0.25449-10.952-0.23535-16.429-0.23347z" stroke-width=".26458"/></g></svg>
