<?xml version="1.0" encoding="UTF-8"?>
<!-- Created with Inkscape (http://www.inkscape.org/) -->
<svg width="134.44mm" height="134.44mm" version="1.1" viewBox="0 0 134.44 134.44" xml:space="preserve" xmlns="http://www.w3.org/2000/svg"><g transform="translate(-37.781 -39.961)"><path d="m151.83 39.991c-1.6914 0.05245-3.4314 0.38366-4.8262 1.515-2.4264 1.8939-4.7153 4.5874-5.082 7.9808-0.48378 5.589-0.40301 11.214-0.32544 16.821 0.0905 2.5071 0.10597 5.0539 0.58975 7.5105 0.83578 2.704 2.5574 5.0695 4.7122 6.631 0.90241 0.62808 2.2288 0.95262 2.4219 2.3135 0.25031 1.6071 0.12591 3.2607 0.0936 4.884-0.0408 0.7669-0.36962 2.0745-1.2987 1.7286-4.9322-2.208-9.8928-4.4906-15.054-6.0318-2.802-0.85483-5.6357-1.5847-8.4576-2.359 0.0671-4.7073-0.19818-9.4381 0.23242-14.127 0.14921-0.63823 0.76066-1.111 1.3457-0.85678 1.7107-0.03662 3.1471-1.7631 3.3977-3.5585 0.19301-0.99351-0.30185-1.9355-1.0372-2.4713-3.241-3.3068-6.841-6.1435-10.327-9.1207-3.9158-3.2226-7.7945-6.5337-11.985-9.3124-0.76816-0.58738-1.7539-0.47434-2.5076 0.076-2.2867 1.3444-4.3105 3.1557-6.4385 4.7752-5.2808 4.2412-10.53 8.5579-15.494 13.249-0.64986 0.68604-1.5507 1.413-1.3603 2.5362 0.11099 2.1782 2.0369 4.1492 4.0352 3.794 0.99941 0.4279 0.80223 1.8111 0.88451 2.7547 0.1922 4.0874 0.0187 8.1855 0.0979 12.272-6.7856 1.7062-13.524 3.7796-19.938 6.7972-1.3508 0.5759-2.624 1.2614-4.0015 1.6368-1.0017-0.35357-0.86731-1.7922-0.90225-2.7239-0.0238-1.6013-0.24546-3.3468 0.44327-4.8209 0.88781-1.0707 2.3083-1.2067 3.1889-2.3347 1.8421-1.7637 3.4171-4.1136 3.8111-6.8209 0.62163-6.1249 0.44653-12.306 0.36054-18.456-0.099-2.2237-0.13017-4.5014-0.68868-6.6504-1.1172-2.9853-3.3321-5.4251-5.9271-6.8672-1.7114-0.9109-3.6683-0.76317-5.5156-0.77204-2.7757 0.01703-5.6051 1.2503-7.3542 3.6963-1.1452 1.4957-2.1573 3.1727-2.8574 4.9594-0.11541 3.1335-0.0134 6.2739-0.0508 9.4103v15.296c1.4113 2.8454 3.0396 5.8242 5.7526 7.3434 0.62738 0.42037 1.2548 0.84074 1.8822 1.2611-0.0592 3.9652 0.21716 7.9558-0.18946 11.902-0.60931 2.0263-2.7409 2.7922-4.5026 2.8394-2.7066 0.20172-5.4262-0.24008-8.127 0.03149-0.95658 0.10199-1.6834 0.82855-2.2744 1.5981-0.6421 0.49365-0.85814 1.3468-0.74431 2.175 0.0288 22.099-0.0842 44.198 0.11858 66.296 0.063 1.9609 0.048 3.9736 0.46725 5.8795 0.47059 0.80353 1.0955 1.9126 2.0996 1.7028h129.85c0.92724-0.8581 1.6701-2.0849 1.5476-3.475 0.40771-5.8582 0.23518-11.741 0.30241-17.61 0.0341-18.049 0.0196-36.098 0.021-54.147-0.99889-1.0911-2.0147-2.6468-3.5999-2.4848-3.1908-0.22689-6.4687 0.56631-9.5919-0.42193-1.3333-0.4845-2.5988-1.7323-2.567-3.396-0.2121-2.7385-0.0312-5.493-0.0867-8.2384 3e-3 -0.88282 5e-3 -1.7656 8e-3 -2.6485 2.3626-1.506 4.8553-3.1477 6.1845-5.8962 0.51355-0.96384 1.1334-1.9213 1.4522-2.9737v-24.553c-1.5695-3.1168-3.4318-6.488-6.6055-7.8081-1.7851-0.70298-3.7052-0.83031-5.584-0.72945zm-94.41 7.2492c1.5464 0.17854 3.0902 1.1852 3.8047 2.73 0.41165 1.8032 0.20666 3.6892 0.32587 5.5293 0.0763 5.151 0.21026 10.345-0.20478 15.443-0.336 2.6237-3.0018 4.304-5.2501 3.6262-1.3531-0.46103-2.7101-1.5631-3.0741-3.1428-0.51631-4.1437-0.31139-8.3412-0.36643-12.511 0.0368-2.9142 0.0266-5.8564 0.46409-8.7357 0.51693-1.6353 2.101-2.4905 3.5282-2.883 0.25425-0.05381 0.51399-0.09298 0.77261-0.05638zm96.051 0.08848c1.3645 0.37604 2.8738 1.2099 3.375 2.7538 0.6235 2.6462 0.39829 5.4147 0.51193 8.1205 0.0481 4.4841 0.0683 9.0121-0.26003 13.448-0.56444 1.7997-2.3373 2.5641-3.8144 3.1963-1.2293 0.22374-2.4172-0.53531-3.3887-1.2819-0.93207-0.82418-1.2026-2.1686-1.1992-3.4225-0.43581-5.5993-0.27696-11.322-0.16958-16.974 0.1125-1.179-0.0498-2.4792 0.44349-3.5585 0.86317-1.4329 2.4402-2.325 3.9799-2.3868 0.17382 0.03525 0.34765 0.0705 0.52148 0.10574zm-48.297 2.8682c1.8359 0.79283 3.3335 2.2675 4.966 3.451 2.5343 2.0088 5.0306 4.0734 7.5399 6.1203 0.0117 6.6298 0.0234 13.26 0.0352 19.889-3.1914 0.06884-6.3647-0.39288-9.5254-0.82225-0.0845-2.8617 0.2269-5.7763-0.29297-8.598-1.0245-2.5756-4.9687-2.4599-5.8438 0.19423-0.34943 2.786-0.1689 5.6024-0.20703 8.4038-3.1626 0.42894-6.338 0.89266-9.5313 0.82225 0.013-6.6298 0.026-13.26 0.0391-19.889 4.0972-3.2222 7.9748-6.8278 12.361-9.5778 0.15281-0.07103 0.30787-0.07828 0.45899 0.0065zm-0.42383 36.796c6.2173 0.06475 12.458-0.07503 18.52 1.4813 8.4724 1.9222 16.733 4.9966 24.491 9.2296 0.56453 0.28485 1.4723 0.61689 0.32761 0.66677-7.3854 1.5444-14.738 3.3928-21.831 6.1714-6.9447 2.5882-13.465 6.3242-20.004 9.9358-0.55041 0.1836-1.0862 0.90409-1.6546 0.42591-3.6281-1.688-7.003-3.9486-10.606-5.7502-8.9591-4.676-18.508-7.8659-28.22-9.9562-1.5119-0.34237-3.0273-0.66511-4.5411-0.99722 6.5783-3.3789 13.287-6.5175 20.343-8.3845 4.9159-1.4162 9.8797-2.5161 14.964-2.6547 2.7357-0.12905 5.4746-0.13872 8.2123-0.1679zm-56.836 17.326c8.2399 0.79744 16.442 2.0364 24.46 4.4034 6.4692 1.8174 12.797 4.2456 18.836 7.3453 6.099 3.0626 11.82 6.7803 17.333 11.032 5.7551 4.4087 11.172 9.4669 15.875 15.249 5.1806 6.3029 9.6869 13.435 13.076 21.129 0.47587 1.2106 0.94937 2.4967 1.0407 3.8047-0.75802 0.21913-1.5714-0.0278-2.3832 0.0638-11.475-0.0147-22.953 0.10862-34.426-0.13162-1.365-0.0835-2.8668 0.0555-4.0836-0.73286-0.76344-0.97814-0.8822-2.3498-1.4706-3.4474-3.2568-8.2078-8.0318-15.671-13.863-21.892-8.0388-8.3615-18.188-14.253-29.018-16.667-2.83-0.67665-5.7283-1.0538-8.6264-0.97561 0.0864-2.2496-6e-3 -4.5155 0.0273-6.7727v-12.709c1.0742 0.1 2.1484 0.19998 3.2227 0.29998zm117.43 63.039h-18.674c-2.2364-5.9472-4.9253-11.688-8.1232-17.075-3.107-5.3799-6.6874-10.423-10.73-14.985-4.341-5.0072-9.0936-9.5595-14.083-13.756-0.45579-0.53375-1.3442-0.94955-1.2771-1.79 0.50415-0.88501 1.5403-1.0794 2.3096-1.6075 12.585-6.783 26.188-11.248 40.05-13.037 3.5012-0.44742 7.017-0.73747 10.527-1.0887v63.339zm-120.65-36.477c3.8777 0.34146 7.6794 0.94697 11.444 2.2196 5.6019 1.9261 10.914 4.7136 15.685 8.4846 7.299 5.638 13.361 13.336 17.088 22.298 0.23143 0.85026 0.89382 1.6853 0.67757 2.5943-0.75353 0.76716-1.9158 0.41337-2.8498 0.57784-7.7192 0.40334-15.45 0.24569-23.176 0.29746-6.2904 2e-3 -12.581 3e-3 -18.871 6e-3 1e-3 -12.158-3e-3 -24.322 2e-3 -36.477z" stroke-width=".55625"/></g></svg>
