<?xml version="1.0" encoding="UTF-8"?>
<!-- Created with Inkscape (http://www.inkscape.org/) -->
<svg width="125.43mm" height="125.43mm" version="1.1" viewBox="0 0 125.43 125.43" xml:space="preserve" xmlns="http://www.w3.org/2000/svg"><path d="m49.562 0c-27.301 0-49.56 22.261-49.56 49.562 1e-8 27.301 22.259 49.561 49.56 49.561 11.496 0 22.098-3.9473 30.521-10.555l35.098 35.1a6 6 0 0 0 8.4863 0 6 6 0 0 0 0-8.4863l-35.1-35.098c6.6089-8.4227 10.557-19.025 10.557-30.522 0-27.301-22.262-49.562-49.563-49.562zm0 12c20.816 0 37.563 16.747 37.563 37.563 0 20.816-16.747 37.56-37.563 37.56-20.816 0-37.56-16.745-37.56-37.56 0-20.816 16.745-37.563 37.56-37.563z" color="#000000" style="-inkscape-stroke:none"/></svg>
