<?xml version="1.0" encoding="UTF-8"?>
<!-- Created with Inkscape (http://www.inkscape.org/) -->
<svg width="130mm" height="130mm" version="1.1" viewBox="0 0 130 130" xml:space="preserve" xmlns="http://www.w3.org/2000/svg"><g transform="translate(-51.06 -43.509)"><path d="m105.55 171.81c-3.4658-1.7099-6.8498-7.1128-6.8498-10.936 0-4.2056-4.9359-6.2284-7.5396-3.0898-1.8893 2.2775-8.3871 4.1673-11.576 3.3667-3.303-0.82936-12.977-9.6575-15.115-13.793-2.218-4.2909-1.8926-7.654 1.1783-12.181 1.49-2.1966 2.7092-4.6064 2.7092-5.355 0-2.0023-2.3048-3.9631-4.6585-3.9631-3.9346 0-9.255-3.406-10.971-7.0233-2.2263-4.6936-2.2263-15.951 0-20.645 1.7158-3.6173 7.0362-7.0233 10.971-7.0233 2.3537 0 4.6585-1.9608 4.6585-3.9631 0-0.74866-1.2191-3.1584-2.7092-5.355-4.4632-6.5796-3.5733-10.548 4.1903-18.685 7.9626-8.3456 12.848-9.6109 19.547-5.0626 2.1957 1.4907 4.6045 2.7103 5.3528 2.7103 2.0015 0 3.9614-2.3058 3.9614-4.6605 0-3.9363 3.4046-9.2589 7.0204-10.975 4.6916-2.2273 15.945-2.2273 20.636 0 3.6158 1.7165 7.0204 7.0392 7.0204 10.975 0 4.2056 4.9359 6.2284 7.5396 3.0898 1.8893-2.2775 8.3871-4.1673 11.576-3.3667 3.303 0.82936 12.977 9.6575 15.115 13.793 2.218 4.2909 1.8927 7.6539-1.1783 12.181-1.49 2.1966-2.7092 4.6064-2.7092 5.355 0 2.0023 2.3048 3.9631 4.6585 3.9631 3.9346 0 9.255 3.406 10.971 7.0233 0.98522 2.0771 1.7092 6.4495 1.7092 10.323 0 3.873-0.72401 8.2454-1.7092 10.322-1.7158 3.6173-7.0362 7.0233-10.971 7.0233-4.2038 0-6.2258 4.938-3.0885 7.5428 2.2765 1.8901 4.1656 8.3906 3.3653 11.58-0.84601 3.3722-9.686 12.999-13.973 15.217-3.7876 1.9594-9.0916 1.2046-12.967-1.8453-1.4955-1.1769-3.398-2.1397-4.2278-2.1397-2.1344 0-4.1095 2.2399-4.1095 4.6605 0 3.9363-3.4046 9.2589-7.0204 10.975-4.6864 2.2248-16.262 2.203-20.807-0.039zm17.8-8.2791c0.59128-0.74533 1.3885-3.0991 1.7717-5.2307 0.92501-5.1462 5.7909-9.6998 11.114-10.401 3.3019-0.43491 5.0521 0.0408 8.2965 2.2552 2.2615 1.5435 4.6813 2.8064 5.3773 2.8064 1.7103 0 10.559-8.7796 10.559-10.477 0-0.74376-1.2623-3.2034-2.8052-5.4659-2.2134-3.2458-2.6889-4.9967-2.2542-8.3 0.70091-5.3257 5.2526-10.194 10.397-11.119 5.7825-1.0403 6.5831-2.1454 6.5831-9.0871s-0.80061-8.0469-6.5831-9.0871c-5.1441-0.92541-9.6957-5.7934-10.397-11.119-0.43473-3.3033 0.0408-5.0542 2.2542-8.3 1.5429-2.2625 2.8052-4.6833 2.8052-5.3795 0-1.711-8.7759-10.563-10.472-10.563-0.74346 0-3.2021 1.2629-5.4636 2.8064-3.2444 2.2143-4.9946 2.6901-8.2965 2.2552-5.3235-0.7012-10.189-5.2548-11.114-10.401-1.0398-5.7849-2.1445-6.5858-9.0833-6.5858-6.9388 0-8.0435 0.80094-9.0833 6.5858-0.92502 5.1462-5.7909 9.6998-11.114 10.401-3.3019 0.43492-5.0521-0.04082-8.2965-2.2552-2.2615-1.5435-4.7201-2.8064-5.4636-2.8064-1.6963 0-10.472 8.852-10.472 10.563 0 0.69628 1.2623 3.1171 2.8052 5.3795 2.2134 3.2458 2.689 4.9967 2.2542 8.3-0.7009 5.3257-5.2526 10.194-10.397 11.119-5.7825 1.0403-6.5831 2.1454-6.5831 9.0871s0.80062 8.0468 6.5831 9.0871c5.1441 0.92542 9.6957 5.7934 10.397 11.119 0.43473 3.3033-0.04086 5.0542-2.2542 8.3-1.5429 2.2625-2.8052 4.6833-2.8052 5.3795 0 1.711 8.776 10.563 10.472 10.563 0.74346 0 3.2021-1.2629 5.4636-2.8064 3.2445-2.2143 4.9946-2.6901 8.2965-2.2552 5.3235 0.7012 10.189 5.2548 11.114 10.401 1.0398 5.7849 2.1445 6.5858 9.0833 6.5858 3.6935 0 6.675-0.55261 7.3117-1.3552zm-14.897-25.612c-9.2825-3.0578-15.33-8.1089-19.633-16.397-3.742-7.2088-3.5969-19.108 0.32375-26.561 5.7607-10.95 14.489-16.211 26.894-16.211s21.134 5.2614 26.894 16.211c3.8347 7.289 4.0638 19.4 0.49477 26.145-3.6955 6.9842-7.7009 11.128-13.693 14.165-5.882 2.9819-16.324 4.2808-21.282 2.6474zm19.732-11.611c2.4664-1.738 5.6613-5.3553 7.0997-8.0385 2.1881-4.0817 2.5258-5.9241 2.0672-11.28-1.758-20.531-27.25-27.461-39.101-10.628-8.0865 11.485-2.3963 28.532 10.945 32.788 5.7657 1.8396 14.12 0.58943 18.989-2.8416z" stroke-width="1.0839"/></g></svg>
