<?xml version="1.0" encoding="UTF-8"?>
<!-- Created with Inkscape (http://www.inkscape.org/) -->
<svg width="136.5mm" height="136.5mm" version="1.1" viewBox="0 0 136.5 136.5" xml:space="preserve" xmlns="http://www.w3.org/2000/svg"><path d="m67.88 13.257c-4.4223 0.09594-8.5455 2.9979-10.352 6.9977-1.7156 3.6274-1.2849 8.1192 1.0216 11.392 2.2058 3.2637 6.1603 5.3172 10.112 5.0952 4.7415-0.13064 9.2265-3.4325 10.678-7.9608 1.4597-4.2676 0.29679-9.3925-3.1335-12.394-2.2382-2.062-5.2766-3.2365-8.3255-3.1297zm0.44484 5.4019c2.4732-0.03991 4.8253 1.5843 5.7922 3.8342 0.48182 1.3698 0.42059 2.8734 0.26888 4.2953-0.4531 1.6527-1.7303 3.0134-3.1968 3.8502-1.2946 0.62952-2.7269 0.73208-4.1263 0.62156-2.3341-0.33891-4.3805-2.2126-4.9117-4.5173-0.26387-1.235-0.3636-2.5769 0.03216-3.7933 0.92378-2.5375 3.4305-4.3162 6.1417-4.2906zm-2.574 21.839c-1.9896 0.07906-4.0124-0.05585-5.9732 0.34156-4.3373 1.1231-7.8277 4.8217-8.9468 9.1249-0.78081 5.0286-1.3071 10.094-1.9177 15.146-0.48872 4.5837-1.1283 9.1548-1.411 13.757-0.09653 1.449 0.01144 2.9754 0.81974 4.2281 1.0833 2.0802 3.1849 3.582 5.487 3.991 0.42015 2.1353 0.4489 4.33 0.66036 6.4936 0.63215 8.2377 1.1531 16.485 1.8669 24.715 0.18828 1.314 0.15516 2.7266 0.77338 3.932 0.56134 0.85915 1.6799 0.84915 2.5921 0.87873 5.6467 0.18431 11.301 0.18941 16.948 0.0258 0.94666-0.0614 2.1897 0.0627 2.7454-0.89186 0.59887-1.3562 0.58068-2.8876 0.77597-4.3363 0.84738-9.7213 1.4026-19.493 2.3172-29.192 0.09398-0.54512 0.0552-1.2029 0.25468-1.6849 1.48-0.11437 2.7877-0.98583 3.8971-1.914 1.6945-1.6512 2.6562-4.1042 2.32-6.4705-0.55022-6.6769-1.3539-13.332-2.1502-19.983-0.41958-3.1093-0.71509-6.243-1.3361-9.32-1.297-4.1657-4.8596-7.6694-9.1757-8.5503-3.0953-0.31518-6.2168-0.27009-9.3256-0.29405-0.40734 4.84e-4 -0.81466 8.06e-4 -1.222 0.0016zm2.5546 5.4428c2.435 0.04957 4.8839-0.09965 7.3083 0.16339 2.1072 0.57907 3.7175 2.369 4.5492 4.3374 0.42145 1.3135 0.47784 2.7204 0.70608 4.0776 0.90548 7.1406 1.7415 14.335 2.4933 21.494 0.09308 1.4863 0.38766 3.0075 0.08475 4.4828-0.31401 0.6934-1.0133 1.2625-1.8135 1.1648-1.1555 0.04731-2.4387 0.0577-3.4184 0.74912-0.74991 0.8693-0.71042 2.1156-0.90186 3.1889-0.5994 5.8386-0.93482 11.701-1.3942 17.553-0.35848 4.881-0.71695 9.7624-1.0754 14.643-4.0857 0.1443-8.178 0.14151-12.265 0.0399-0.27015-0.10798-0.95287 0.15876-0.92233-0.27593-0.90266-11.14-1.6221-22.294-2.5335-33.433-0.21119-1.2484-1.2992-2.324-2.5985-2.3392-1.1128-0.1706-2.4847 0.07487-3.2913-0.89533-0.50153-0.7639-0.26619-1.7609-0.27733-2.6237 0.31321-4.3154 0.89581-8.6817 1.3671-13.023 0.55426-4.6559 1.0512-9.3393 1.7198-13.964 0.50452-2.2003 2.145-4.0362 4.2161-4.8993 0.5084-0.2799 1.0192-0.5495 1.6184-0.43964h6.4285z" stroke-width=".21322"/><path d="m133.17 68.25a64.921 64.921 0 0 1-64.921 64.921 64.921 64.921 0 0 1-64.921-64.921 64.921 64.921 0 0 1 64.921-64.921 64.921 64.921 0 0 1 64.921 64.921z" fill="none" stroke="#000" stroke-linecap="round" stroke-width="6"/></svg>
