<?xml version="1.0" encoding="UTF-8"?>
<!-- Created with Inkscape (http://www.inkscape.org/) -->
<svg width="137.14mm" height="137.14mm" version="1.1" viewBox="0 0 137.14 137.14" xml:space="preserve" xmlns="http://www.w3.org/2000/svg"><path d="m68.225 18.577c-5.2794 0.09222-10.055 4.4947-10.65 9.7286-0.5693 4.1941 1.5667 8.577 5.1954 10.745 3.5624 2.2836 8.4425 2.1522 11.912-0.24987 3.1066-2.0141 5.0082-5.6855 4.8918-9.3819-0.03133-3.3947-1.7021-6.7497-4.5055-8.6971-1.963-1.4397-4.4074-2.2241-6.8444-2.1444zm0.42032 5.8159c2.5791-0.03348 5.0996 2.1746 5.0533 4.8264 0.05321 1.1662-0.0077 2.4203-0.79107 3.3587-0.97504 1.3867-2.6004 2.2707-4.307 2.237-2.6046 0.26271-5.049-1.9595-5.2048-4.5393-0.26641-1.5627 0.25527-3.2094 1.4191-4.2952 1.002-1.0068 2.4068-1.6022 3.8305-1.5876zm-2.3338 18.71c-2.4932 0.09255-5.2-0.1736-7.4959 1.0678-3.2117 1.5609-5.6948 4.634-6.4497 8.1317-1.0314 7.0795-1.7645 14.202-2.5807 21.308-0.15779 2.0737-0.50869 4.1556-0.3526 6.2375 0.28921 2.4572 2.0781 4.609 4.3053 5.6095 0.45048 0.20736 0.92468 0.36484 1.4078 0.47435 0.42342 2.7665 0.49525 5.5734 0.7465 8.3588 0.53066 6.8244 0.92167 13.662 1.5915 20.474 0.15582 1.1432 0.19792 2.5925 1.2848 3.2751 1.2306 0.61751 2.6697 0.32486 3.9939 0.45549 4.8164 0.10352 9.64 0.12424 14.453-0.088 0.95988-0.0221 1.8808-0.66189 2.0436-1.6448 0.5001-1.9406 0.51239-3.9687 0.72336-5.9538 0.6891-8.2967 1.1599-16.613 2.0008-24.896 1.7186-0.32865 3.2788-1.4015 4.3158-2.7963 1.2014-1.6098 1.6755-3.727 1.3484-5.6788-0.6785-7.7189-1.6074-15.416-2.6176-23.098-0.25129-1.6654-0.44155-3.385-1.3054-4.869-1.6022-3.0754-4.5885-5.5414-8.0513-6.1174-3.1104-0.29161-6.2408-0.23239-9.3614-0.24988zm-3.5384 5.8528c3.7674 0.03775 7.5384-0.05929 11.304 0.06212 2.0338-0.06934 3.6925 1.5266 4.5543 3.2376 0.65432 1.3893 0.60429 2.979 0.87784 4.4666 0.85398 6.9584 1.7243 13.918 2.3574 20.9-0.0039 0.8408 0.22861 2.0093-0.69292 2.4604-0.99972 0.21262-2.0875 0.03074-3.0689 0.42032-0.92475 0.21565-1.4557 1.0838-1.6037 1.969-0.54961 3.4673-0.69359 6.9862-0.99211 10.482-0.48049 6.5884-0.97089 13.176-1.4526 19.765-3.6557 0.11373-7.3192 0.11419-10.972 4e-3 -0.81271-10.012-1.445-20.04-2.2933-30.047-0.26844-1.3996-1.6029-2.4702-3.0295-2.4222-0.80762-0.11288-1.7902 0.07952-2.3749-0.65019-0.33762-1.0188-0.04588-2.124-0.02429-3.1733 0.5801-6.1559 1.3529-12.343 2.0783-18.507 0.23095-1.6527 0.35813-3.324 0.71623-4.9631 0.55265-1.799 2.0574-3.1404 3.765-3.8329 0.25989-0.13476 0.55668-0.22797 0.8512-0.17059z" stroke-width=".90044"/><path d="m68.568 0c-37.827 0-68.57 30.743-68.57 68.57 1e-8 37.827 30.743 68.572 68.57 68.572 37.827 0 68.572-30.745 68.572-68.572 0-37.827-30.745-68.57-68.572-68.57zm0 7.3008c33.882 0 61.271 27.387 61.271 61.27 0 33.882-27.389 61.271-61.271 61.271-33.882 0-61.27-27.389-61.27-61.271 0-33.882 27.387-61.27 61.27-61.27z" color="#000000" stroke-linecap="round"/></svg>
