<?xml version="1.0" encoding="UTF-8"?>
<!-- Created with Inkscape (http://www.inkscape.org/) -->
<svg width="136.5mm" height="136.5mm" version="1.1" viewBox="0 0 136.5 136.5" xml:space="preserve" xmlns="http://www.w3.org/2000/svg"><g transform="translate(-529.21 -88.998)"><path d="m596.53 89.007c-5.4876 0.11905-10.604 3.72-12.846 8.6834-2.1288 4.5012-1.5944 10.075 1.2677 14.136 2.7371 4.0499 7.6442 6.598 12.548 6.3226 5.8836-0.16211 11.449-4.2593 13.25-9.8784 1.8113-5.2956 0.36828-11.655-3.8883-15.38-2.7773-2.5587-6.5477-4.0161-10.331-3.8836zm-39.393 5.709c-3.2243 0.18821-6.4051 1.3931-8.7925 3.5986-3.4336 2.9315-5.2377 7.5457-4.8808 12.028 0.30375 5.1364 3.5913 9.9593 8.2867 12.078 2.8801 1.3023 6.1885 1.8452 9.2904 1.0725 5.8002-1.2638 10.516-6.3265 11.377-12.199 0.53318-2.9623-0.28704-5.9729-1.4612-8.68-1.6698-3.3507-4.8096-5.8343-8.2634-7.1696-1.7702-0.65266-3.6813-0.84252-5.5566-0.72852zm79.123 0c-4.8955 0.13875-9.5927 2.9934-11.954 7.2874-2.9574 5.0617-2.3959 11.907 1.3814 16.396 2.642 3.1615 6.5664 5.393 10.75 5.4201 5.3311 0.21798 10.647-2.7474 13.205-7.4392 2.8152-4.9691 2.4466-11.652-1.2238-16.099-2.244-2.8855-5.5558-5.0021-9.225-5.4224-0.9706-0.13935-1.9546-0.17086-2.934-0.14346zm-39.178 0.99414c3.069-0.04953 5.9876 1.9659 7.1875 4.7578 0.59789 1.6998 0.5219 3.5655 0.33365 5.33-0.56225 2.0508-2.1471 3.7393-3.9669 4.7776-1.6065 0.78116-3.3838 0.90843-5.1203 0.77129-2.8964-0.42055-5.4357-2.7456-6.0949-5.6054-0.32743-1.5325-0.45118-3.1976 0.0399-4.7071 1.1463-3.1487 4.2569-5.3559 7.6211-5.3242zm-39.359 5.6445c2.8724-0.0875 5.8963 1.5471 7.1856 4.2338 0.88272 1.6527 1.2797 3.6141 0.71093 5.438-0.57136 2.5207-2.3924 4.7588-4.8818 5.573-1.4976 0.54639-3.158 0.86629-4.7042 0.31373-3.4273-0.84451-6.0138-4.1702-5.9697-7.702-0.0399-1.8514 0.59717-3.7166 1.9236-5.0371 1.2476-1.407 2.8766-2.6173 4.8148-2.7535 0.30495-0.044 0.61308-0.0588 0.92081-0.066zm79.477 0c1.789-0.0101 3.56 0.6446 4.8342 1.9174 1.4073 1.2463 2.6154 2.8746 2.752 4.8122 0.4952 3.4203-1.4496 7.0901-4.7073 8.37-2.1226 1.0092-4.6692 0.88262-6.723-0.2355-2.7701-1.2521-4.3178-4.3382-4.3174-7.2882 0.14645-1.9927 1.0373-3.9586 2.4589-5.3671 1.5236-1.4819 3.6443-2.245 5.7026-2.2088zm-43.312 21.455c-2.4689 0.0981-4.9789-0.0693-7.4121 0.42383-5.3821 1.3937-9.7133 5.9832-11.102 11.323-0.96889 6.2399-1.6219 12.526-2.3796 18.795-0.60644 5.6878-1.4001 11.36-1.7509 17.071-0.11978 1.798 0.0142 3.6921 1.0172 5.2466 1.3443 2.5813 3.9521 4.4448 6.8087 4.9524 0.52136 2.6496 0.55703 5.373 0.81943 8.0578 0.78443 10.222 1.4309 20.456 2.3166 30.669 0.23364 1.6305 0.19253 3.3834 0.95968 4.8792 0.69656 1.0661 2.0846 1.0537 3.2165 1.0904 7.0069 0.22871 14.023 0.23503 21.031 0.032 1.1747-0.0761 2.7172 0.0778 3.4067-1.1067 0.74313-1.6829 0.72056-3.5832 0.96289-5.3809 1.0515-12.063 1.7405-24.188 2.8754-36.224 0.11662-0.67643 0.0685-1.4926 0.31603-2.0908 1.8365-0.14192 3.4592-1.2233 4.8359-2.375 2.1027-2.049 3.2961-5.0928 2.8788-8.0292-0.68276-8.2852-1.68-16.543-2.6681-24.797-0.52065-3.8583-0.88735-7.7469-1.6579-11.565-1.6094-5.1692-6.0302-9.5168-11.386-10.61-3.8409-0.3911-7.7144-0.33515-11.572-0.36488-0.50546 6e-4 -1.0109 1e-3 -1.5164 2e-3zm-40.504 5.625c-2.6972 0.02-5.4735 0.12714-7.976 1.2466-4.046 1.6781-7.3925 5.2331-8.4586 9.5196-1.2 7.5472-2.0972 15.141-3.0388 22.725-0.35128 3.2373-0.83829 6.4679-1.0031 9.7202-0.0414 2.5089 1.2468 4.8768 3.1459 6.4627 1.3078 1.1727 2.9879 1.8004 4.6802 2.1752 0.8925 12.497 1.7851 24.993 2.6777 37.49 0.87171 0.88335 1.7935 2.135 3.1905 1.9935 6.8212 0.11322 13.646 0.17111 20.467 0.0734 1.4332-0.10698 3.024 0.0399 4.2877-0.7563 1.2181-1.0285 1.0315-2.7785 1.266-4.2046 0.82465-9.0845 1.3766-18.192 1.997-27.292 0.10776-1.2558 0.27788-2.7319-0.71648-3.7069-1.1118-1.2155-3.0918-1.2724-4.4743-0.52304-1.1592 0.88215-1.0888 2.5147-1.3223 3.8184-0.73981 7.5088-1.1433 15.048-1.7156 22.571-0.0779 1.0974-0.15578 2.1948-0.23367 3.2923h-16.338c-0.62922-6.896-1.0266-13.812-1.55-20.717-0.40213-5.408-0.73507-10.824-1.241-16.223-0.19008-1.3444-1.4794-2.1571-2.7416-2.3001-1.1971-0.27827-2.5058-0.0433-3.6423-0.53682-0.7633-0.57684-1.342-1.5233-1.0589-2.5043 1.0216-8.9125 2.1165-17.818 3.318-26.708 0.29435-2.1175 0.59009-4.3819 2.0543-6.0563 1.4435-1.755 3.7059-2.8046 5.9854-2.7035 5.667-0.13976 11.341 0.15054 17.005-0.0923 1.0877-0.0326 2.4378-0.29659 2.8141-1.4815 0.49269-1.4122 0.27915-3.2107-1.031-4.1134-1.4317-1.1157-3.3477-0.87183-5.0445-1.0262-3.7654-0.15447-7.5353-0.19037-11.303-0.14356zm80.598 0.082c-2.7449 0.0928-5.5533-0.0803-8.2336 0.61743-1.346 0.42011-2.8309 1.5012-2.749 3.0685-0.1014 0.99008 0.16858 2.047 1.0146 2.6515 0.61309 0.67774 1.5327 1.0543 2.4368 0.79152 3.1107-0.21709 6.4684-0.22573 9.6859-0.29435 3.1569 0.0107 6.3245-0.19644 9.4743 0.0639 2.1005 0.37303 3.9505 1.7898 5.0929 3.5569 1.0152 2.131 1.1519 4.5461 1.5434 6.8439 1.1242 8.5084 2.2075 17.024 3.1491 25.554-8e-3 0.87393-0.69448 1.7319-1.4819 2.0536-1.7569 0.38196-3.8673-0.0242-5.3054 1.2849-1.0521 1.0786-0.74466 2.7176-0.95519 4.082-0.89361 11.243-1.569 22.503-2.4929 33.742 0.16433 0.85677-0.85571 0.39157-1.3558 0.5067h-15.04c-0.70133-9.4709-1.2545-18.956-2.1504-28.41-0.23059-2.0421-2.8041-3.0454-4.5462-2.203-0.86928 0.29164-1.5691 1.0274-1.6257 1.9705-0.27385 2.9704 0.11001 5.9531 0.25346 8.9219 0.53773 7.4961 0.9876 15.002 1.7211 22.481 0.16017 1.0849 0.0946 2.3875 1.0625 3.1259 1.0907 1.072 2.7467 0.77826 4.1332 0.89998 7.3055 0.0842 14.612-0.0248 21.918-0.0426 0.64241-0.70207 1.451-1.3275 1.9874-2.0783 0.89022-12.469 1.781-24.939 2.6708-37.408 2.2456-0.48392 4.4753-1.485 5.9118-3.3435 1.6721-1.9984 2.1904-4.7364 1.786-7.2696-1.0559-9.7246-2.2824-19.434-3.6867-29.115-0.53935-4.7263-4.0089-8.7528-8.2461-10.703-1.7745-0.88791-3.7419-1.3235-5.724-1.2998-3.4146-0.0875-6.8324-0.0559-10.248-0.0505zm-36.924 1.0469c3.0215 0.0615 6.0604-0.12366 9.0688 0.20275 2.6148 0.71856 4.613 2.9396 5.645 5.3822 0.52297 1.6299 0.59294 3.3757 0.87616 5.0598 1.1236 8.8607 2.161 17.788 3.0939 26.672 0.11551 1.8443 0.48104 3.732 0.10516 5.5627-0.38965 0.86043-1.2574 1.5666-2.2504 1.4454-1.4339 0.0587-3.0261 0.0716-4.2418 0.92957-0.93055 1.0787-0.88155 2.6252-1.1191 3.957-0.74379 7.245-1.16 14.52-1.73 21.781-0.44483 6.0568-0.88965 12.114-1.3345 18.17-5.0699 0.17906-10.148 0.17558-15.22 0.0494-0.33523-0.13399-1.1824 0.197-1.1445-0.34239-1.1201-13.823-2.0128-27.664-3.1438-41.486-0.26206-1.5491-1.6122-2.8838-3.2245-2.9027-1.3808-0.2117-3.0832 0.0929-4.0841-1.111-0.62234-0.94791-0.33031-2.1851-0.34414-3.2557 0.38866-5.3549 1.1116-10.773 1.6964-16.16 0.68778-5.7774 1.3044-11.589 2.1341-17.328 0.62605-2.7303 2.6617-5.0085 5.2317-6.0795 0.63087-0.34732 1.2647-0.68187 2.0082-0.54555h7.977z" stroke-width=".26458"/></g></svg>
