<?xml version="1.0" encoding="UTF-8"?>
<!-- Created with Inkscape (http://www.inkscape.org/) -->
<svg width="100mm" height="100mm" version="1.1" viewBox="0 0 100 100" xml:space="preserve" xmlns="http://www.w3.org/2000/svg"><path d="m100 50a50 50 0 0 1-50 50 50 50 0 0 1-50-50 50 50 0 0 1 50-50 50 50 0 0 1 50 50z" fill="#fff" stroke-linecap="round" stroke-width="65.883"/><g transform="matrix(3.0303 0 0 3.0303 -512.93 -194.38)"><path d="m192.22 73.702a6.4553 6.4553 0 0 1-6.4553 6.4553 6.4553 6.4553 0 0 1-6.4553-6.4553 6.4553 6.4553 0 0 1 6.4553-6.4553 6.4553 6.4553 0 0 1 6.4553 6.4553z" stroke-linecap="round" stroke-width="8.5059"/><path d="m185.77 81.919a16.5 16.5 0 0 0-13.889 7.6135 16.5 16.5 0 0 0 13.889 7.613 16.5 16.5 0 0 0 13.896-7.6233 16.5 16.5 0 0 0-13.896-7.6032z"/></g></svg>
