<?xml version="1.0" encoding="UTF-8"?>
<!-- Created with Inkscape (http://www.inkscape.org/) -->
<svg width="134.99mm" height="134.99mm" version="1.1" viewBox="0 0 134.99 134.99" xml:space="preserve" xmlns="http://www.w3.org/2000/svg"><g transform="translate(-37.505 -106.41)"><path d="m95.798 215.65c-21.724-2.9283-42.24-16.302-55.745-36.336-3.3261-4.9344-3.3535-5.7868-0.33206-10.346 12.58-18.981 31.43-32.102 52.011-36.204 6.3513-1.2658 20.322-1.2613 26.698 9e-3 11.805 2.3514 23.76 7.9185 32.93 15.335 9.9113 8.0157 21.134 21.699 21.134 25.768 0 1.314-0.67571 2.8515-2.3256 5.2917-12.671 18.741-31.533 31.846-51.413 35.722-5.3276 1.0387-17.819 1.4518-22.957 0.75921zm23.019-9.426c12.208-2.7925 22.843-8.7676 32.902-18.486 5.6612-5.4695 11.548-12.515 11.548-13.822 0-1.2394-6.6511-9.2232-11.72-14.068-13.029-12.453-26.744-18.708-43.094-19.652-18.388-1.062-35.355 5.6638-50.071 19.848-5.6396 5.4358-11.532 12.483-11.532 13.793 0 1.2801 6.7688 9.3519 12.066 14.388 11.649 11.077 23.256 16.788 38.999 19.19 3.5958 0.54867 16.513-0.18777 20.902-1.1916zm-19.699-7.77c-4.6246-1.121-8.2461-3.2122-11.913-6.8786-9.9973-9.9974-9.9636-25.433 0.07757-35.475 14.68-14.68 39.225-6.6743 42.738 13.94 2.9661 17.406-13.575 32.614-30.903 28.414zm13.085-9.2734c3.3474-1.5885 6.5342-4.7591 8.2017-8.16 1.8626-3.7988 1.8626-10.489 0-14.287-1.6541-3.3736-4.8281-6.5476-8.2017-8.2017-3.7988-1.8626-10.489-1.8626-14.287 0-13.755 6.7443-12.609 26.173 1.8549 31.428 3.3395 1.2134 8.9784 0.86009 12.433-0.77905z" stroke-width=".52917"/></g></svg>
